<svg width="24" height="24" viewBox="0 0 24 24" fill="none" xmlns="http://www.w3.org/2000/svg">
<rect x="4" y="4" width="16" height="16" rx="8" fill="#989898"/>
<path d="M15.5865 14.8373L12.7498 12.0002L15.5865 9.16307C15.6358 9.11382 15.6748 9.05539 15.7015 8.99105C15.7281 8.92671 15.7419 8.85775 15.7419 8.78811C15.7419 8.71846 15.7281 8.64951 15.7015 8.58516C15.6748 8.52082 15.6358 8.46239 15.5865 8.41315C15.5373 8.3639 15.4789 8.32475 15.4146 8.2981C15.3502 8.27144 15.2812 8.25781 15.2115 8.25781C15.1419 8.25781 15.0728 8.27144 15.0085 8.2981C14.9442 8.32475 14.8858 8.3639 14.8366 8.41315L11.9999 11.2502L9.16317 8.41355C9.06311 8.31705 8.92925 8.26368 8.79024 8.26493C8.65123 8.26619 8.51826 8.32197 8.41996 8.42027C8.32166 8.51857 8.26578 8.65154 8.26453 8.79055C8.26327 8.92956 8.31674 9.06341 8.41325 9.16347L11.2504 12.001L8.41325 14.8381C8.31379 14.9376 8.25781 15.0724 8.25781 15.2131C8.25781 15.3537 8.31379 15.4887 8.41325 15.5881C8.5127 15.6876 8.64756 15.7435 8.78821 15.7435C8.92886 15.7435 9.06371 15.6876 9.16317 15.5881L11.9999 12.7502L14.8374 15.5872C14.9369 15.6867 15.0717 15.7426 15.2124 15.7426C15.353 15.7426 15.4879 15.6867 15.5873 15.5872C15.6868 15.4878 15.7428 15.3529 15.7428 15.2123C15.7428 15.0716 15.6868 14.9368 15.5873 14.8373H15.5865Z" fill="white"/>
</svg>
