<svg width="24" height="24" viewBox="0 0 24 24" fill="#767E32" xmlns="http://www.w3.org/2000/svg">
<path d="M6.63981 18.2411L6.47629 18.3889L6.6398 18.2411C4.84828 16.2588 3.22424 13.5977 3.22424 10.4517C3.22424 5.60493 7.15327 1.6759 12 1.6759C16.8467 1.6759 20.7758 5.60493 20.7758 10.4517C20.7758 13.5977 19.1517 16.2588 17.3602 18.2411C15.5648 20.2276 13.5563 21.5832 12.683 22.127C12.2608 22.3899 11.7392 22.3899 11.317 22.127C10.4437 21.5832 8.43512 20.2276 6.63981 18.2411ZM12 14.3682C14.1631 14.3682 15.9165 12.6147 15.9165 10.4517C15.9165 8.28859 14.1631 6.53512 12 6.53512C9.83693 6.53512 8.08346 8.28864 8.08346 10.4517C8.08346 12.6147 9.83693 14.3682 12 14.3682Z" fill="#767E32" stroke="#767E32" stroke-width="0.448486"/>
</svg>
