<svg width="24" height="24" viewBox="0 0 24 24" fill="none" xmlns="http://www.w3.org/2000/svg">
<path d="M20.889 10.94L20.5352 11.2933L20.889 10.94ZM20.889 10.94L20.5354 11.2935L20.889 10.94ZM17.7074 15.5364C17.5198 15.7241 17.2653 15.8295 17 15.8295C16.7347 15.8295 16.4802 15.7241 16.2926 15.5364C16.1049 15.3488 15.9995 15.0943 15.9995 14.829C15.9995 14.5637 16.1049 14.3092 16.2926 14.1216L16.5606 13.8536L17.4141 13H16.207H12C11.7348 13 11.4804 12.8946 11.2929 12.7071C11.1054 12.5196 11 12.2652 11 12C11 11.7348 11.1054 11.4804 11.2929 11.2929C11.4804 11.1054 11.7348 11 12 11H16.207H17.4141L16.5606 10.1464L16.2926 9.87853C16.2926 9.8785 16.2926 9.87847 16.2926 9.87845C16.1997 9.78557 16.1261 9.67533 16.0759 9.55401C16.0257 9.43266 15.9998 9.3026 15.9999 9.17126C15.9999 9.03993 16.0258 8.90988 16.0761 8.78855C16.1264 8.66722 16.2001 8.55699 16.293 8.46414C16.3859 8.37129 16.4961 8.29765 16.6175 8.24741C16.7388 8.19718 16.8689 8.17134 17.0002 8.17137C17.1316 8.1714 17.2616 8.1973 17.3829 8.24759C17.5039 8.29771 17.6137 8.37106 17.7064 8.46349C17.7065 8.46357 17.7065 8.46364 17.7066 8.46372L17.7074 15.5364ZM17.7074 15.5364L17.7073 15.5366L18.061 15.89L17.7074 15.5364ZM17.7074 8.46447L18.061 8.111L18.0611 8.11113L17.7076 8.46472L17.7074 8.46447ZM20.889 13.06L20.5353 12.7066L20.5352 12.7067L20.889 13.06ZM12 3C12.2652 3 12.5196 3.10536 12.7071 3.29289C12.8946 3.48043 13 3.73478 13 4C13 4.26522 12.8946 4.51957 12.7071 4.70711C12.5196 4.89464 12.2652 5 12 5H7C6.73478 5 6.48043 5.10536 6.29289 5.29289C6.10536 5.48043 6 5.73478 6 6V18C6 18.2652 6.10536 18.5196 6.29289 18.7071C6.48043 18.8946 6.73478 19 7 19H11.5C11.7652 19 12.0196 19.1054 12.2071 19.2929C12.3946 19.4804 12.5 19.7348 12.5 20C12.5 20.2652 12.3946 20.5196 12.2071 20.7071C12.0196 20.8946 11.7652 21 11.5 21H7C6.20435 21 5.44129 20.6839 4.87868 20.1213C4.31607 19.5587 4 18.7956 4 18V6C4 5.20435 4.31607 4.44129 4.87868 3.87868C5.44129 3.31607 6.20435 3 7 3H12Z" fill="#989898" stroke="#989898"/>
</svg>
