<svg width="24" height="24" viewBox="0 0 24 24" fill="none" xmlns="http://www.w3.org/2000/svg">
<path d="M13.4186 14.7115L21.5 6.62919V18V18.0002C21.5001 18.3786 21.3572 18.7431 21.0999 19.0206C20.8448 19.2957 20.4959 19.4651 20.1222 19.4957L19.9917 19.5H4H3.99984C3.62141 19.5001 3.25692 19.3572 2.97943 19.0999C2.70431 18.8448 2.53488 18.4959 2.50435 18.1222L2.5 17.9917V6.6212L10.5893 14.7114C10.9394 15.0617 11.407 15.2697 11.9016 15.2951C12.3962 15.3205 12.8826 15.1614 13.2667 14.8488L13.2766 14.8406L13.2862 14.832L13.4002 14.729L13.4096 14.7205L13.4186 14.7115ZM19.3879 4.5L12.005 11.8829L4.6212 4.5H19.3879Z" fill="#989898" stroke="#989898"/>
</svg>
