<svg width="24" height="24" viewBox="0 0 24 24" fill="none" xmlns="http://www.w3.org/2000/svg">
<path d="M2.69565 7.70166L2.7014 7.74015L2.70268 7.78084C2.93891 15.2897 9.10044 21.3043 16.6667 21.3043H16.8889C19.3275 21.3043 21.3043 19.3275 21.3043 16.8889V16.636C21.3043 16.1027 20.9796 15.6231 20.4845 15.425L20.4844 15.425L17.7443 14.329L17.7443 14.329C17.0948 14.0691 16.3529 14.2214 15.8583 14.7161L15.8583 14.7161L14.4909 16.0834C14.2571 16.3172 13.9252 16.4027 13.6272 16.3122L13.6271 16.3122C10.7888 15.4502 8.54979 13.2112 7.68783 10.3729L7.68783 10.3728C7.59733 10.0748 7.68281 9.74286 7.91659 9.50908L9.28392 8.14174C9.77858 7.64708 9.93087 6.90522 9.67105 6.25571L9.67104 6.25569L8.57499 3.51558L8.57498 3.51555C8.37694 3.02038 7.89733 2.69565 7.36395 2.69565H7.11111C4.67251 2.69565 2.69565 4.67252 2.69565 7.11111V7.70166Z" fill="#989898" stroke="#989898" stroke-width="1.3913"/>
</svg>
