<svg width="24" height="24" viewBox="0 0 24 24" fill="none" xmlns="http://www.w3.org/2000/svg">
<path d="M20.5 20V20.0002C20.5001 20.3786 20.3572 20.7431 20.0999 21.0206C19.8448 21.2957 19.4959 21.4651 19.1222 21.4956L18.9916 21.5H5H4.99984C4.62141 21.5001 4.25692 21.3572 3.97943 21.0999C3.70431 20.8448 3.53488 20.4959 3.50435 20.1222L3.5 19.9917V19C3.50007 17.8404 3.94779 16.7256 4.74979 15.888C5.55066 15.0517 6.64305 14.5563 7.79974 14.5047L8.00576 14.5H16C16 14.5 16 14.5 16 14.5C17.1596 14.5001 18.2744 14.9478 19.112 15.7498C19.9483 16.5507 20.4437 17.6431 20.4953 18.7998L20.5 19.0057V20ZM12 2.5C13.1935 2.5 14.3381 2.97411 15.182 3.81802C16.0259 4.66193 16.5 5.80653 16.5 7C16.5 8.19347 16.0259 9.33807 15.182 10.182C14.3381 11.0259 13.1935 11.5 12 11.5C10.8065 11.5 9.66193 11.0259 8.81802 10.182C7.97411 9.33807 7.5 8.19347 7.5 7C7.5 5.80653 7.97411 4.66193 8.81802 3.81802C9.66193 2.97411 10.8065 2.5 12 2.5Z" fill="#989898" stroke="#989898"/>
</svg>
