<svg width="24" height="24" viewBox="0 0 24 24" fill="none" xmlns="http://www.w3.org/2000/svg">
<path d="M9.56005 12.1002L14.2412 6.83932C14.2744 6.80544 14.3061 6.79756 14.327 6.79786C14.3488 6.79818 14.3824 6.80765 14.4168 6.84622C14.4529 6.88682 14.4818 6.95284 14.4827 7.0324C14.4836 7.11014 14.4576 7.17634 14.4232 7.21887L10.2052 11.9594L9.90947 12.2918L10.2052 12.6242L14.4285 17.3708C14.4653 17.4122 14.4942 17.4791 14.4941 17.5598C14.4941 17.6405 14.4649 17.7081 14.4282 17.7494C14.3929 17.789 14.3588 17.7979 14.3377 17.7979C14.3164 17.7978 14.2821 17.7888 14.247 17.7492L14.2468 17.749L9.56005 12.4819C9.55989 12.4817 9.55972 12.4815 9.55956 12.4813C9.52284 12.4394 9.49414 12.372 9.49414 12.2913C9.49414 12.2103 9.52307 12.1424 9.55959 12.1008C9.55974 12.1006 9.5599 12.1004 9.56005 12.1002Z" fill="#989898" stroke="#989898"/>
</svg>
