<svg width="24" height="24" viewBox="0 0 24 24" fill="none" xmlns="http://www.w3.org/2000/svg">
<path d="M12.3988 10.0561L17.6597 14.7373C17.6936 14.7705 17.7015 14.8022 17.7012 14.8231C17.7008 14.8449 17.6914 14.8785 17.6528 14.9129C17.6122 14.949 17.5462 14.9779 17.4666 14.9788C17.3889 14.9797 17.3227 14.9537 17.2802 14.9193L12.5396 10.7013L12.2072 10.4056L11.8748 10.7013L7.12826 14.9246C7.08686 14.9614 7.01993 14.9903 6.93925 14.9902C6.85848 14.9902 6.79092 14.961 6.74967 14.9243C6.71003 14.889 6.70116 14.8549 6.70117 14.8338C6.70118 14.8125 6.71023 14.7782 6.7498 14.743L6.75 14.7429L12.0171 10.0561C12.0173 10.056 12.0175 10.0558 12.0177 10.0557C12.0596 10.0189 12.1271 9.99023 12.2077 9.99023C12.2887 9.99023 12.3566 10.0192 12.3983 10.0557C12.3984 10.0558 12.3986 10.056 12.3988 10.0561Z" fill="#989898" stroke="#989898"/>
</svg>
