<svg width="24" height="24" viewBox="0 0 24 24" fill="none" xmlns="http://www.w3.org/2000/svg">
<path d="M14.8394 11.6367L15.193 11.9904L14.8393 12.3439L7.91849 19.2608C7.78592 19.3934 7.71142 19.5732 7.71142 19.7607C7.71142 19.9483 7.78592 20.1281 7.91849 20.2607C8.05107 20.3933 8.23092 20.4678 8.41846 20.4678C8.606 20.4678 8.78584 20.3933 8.91842 20.2607L16.6914 12.4878L16.693 12.4861C16.7581 12.4216 16.8102 12.3441 16.8461 12.258C16.882 12.1719 16.9004 12.0805 16.9004 11.9888C16.9004 11.897 16.882 11.8053 16.8461 11.7193C16.8103 11.6334 16.7583 11.5561 16.693 11.4914L16.6913 11.4897L8.92662 3.72308C8.79038 3.59429 8.60996 3.52246 8.42236 3.52246C8.23493 3.52246 8.05464 3.59417 7.91845 3.72276C7.85425 3.78779 7.80327 3.86452 7.7685 3.94837C7.73309 4.03375 7.71484 4.12554 7.71484 4.21875C7.71484 4.31196 7.73309 4.40375 7.7685 4.48912C7.80393 4.57456 7.85618 4.6526 7.9221 4.71841L7.92243 4.71874L14.8394 11.6367Z" fill="#989898" stroke="#989898"/>
</svg>
