<svg width="24" height="24" viewBox="0 0 24 24" fill="none" xmlns="http://www.w3.org/2000/svg">
<path d="M16.4377 16.143L16.451 16.1563C16.4826 16.1939 16.5 16.2413 16.5 16.2904C16.5 16.3453 16.4781 16.3984 16.4388 16.4377C16.3997 16.4768 16.3467 16.4988 16.2914 16.4988C16.2361 16.4988 16.1831 16.4768 16.144 16.4377L16.1439 16.4377L12.353 12.6477L11.9993 12.2942L11.6458 12.6478L7.85603 16.4389C7.81689 16.4781 7.76389 16.5 7.70862 16.5C7.65335 16.5 7.60034 16.4781 7.5612 16.4389C7.52196 16.3997 7.5 16.3465 7.5 16.2915C7.5 16.2365 7.52189 16.1834 7.5612 16.1441L11.3516 12.354L11.7052 12.0005L11.3517 11.6469L7.56535 7.86044C7.52854 7.82111 7.50847 7.76945 7.50895 7.71619C7.50944 7.66178 7.53134 7.60942 7.57017 7.57059C7.60883 7.53194 7.66115 7.50999 7.71585 7.50949C7.7694 7.50901 7.82102 7.52913 7.86017 7.56576L11.6459 11.351L11.9995 11.7045L12.353 11.351L16.1429 7.56108C16.1429 7.56107 16.1429 7.56107 16.1429 7.56106C16.1628 7.54119 16.1857 7.52596 16.2104 7.51576C16.2352 7.50547 16.2624 7.5 16.2903 7.5C16.3182 7.5 16.3454 7.50547 16.3702 7.51576C16.3949 7.52596 16.4178 7.5412 16.4377 7.56108C16.4571 7.58047 16.4724 7.60342 16.4829 7.62866C16.4936 7.65448 16.4989 7.68162 16.4989 7.70841C16.4989 7.73521 16.4936 7.76235 16.4829 7.78816C16.4724 7.81341 16.4571 7.83635 16.4377 7.85575L16.4377 7.85577L12.6478 11.6458L12.2943 11.9994L12.6478 12.3529L16.4377 16.143Z" fill="#989898" stroke="#989898"/>
</svg>
