<svg width="24" height="24" viewBox="0 0 24 24" fill="none" xmlns="http://www.w3.org/2000/svg">
<path d="M20.2885 19.1931L20.3224 19.227C20.448 19.3685 20.5178 19.5514 20.5178 19.7412C20.5178 19.9465 20.4361 20.1437 20.2905 20.2893C20.1451 20.4347 19.948 20.5164 19.7424 20.5164C19.5369 20.5164 19.3398 20.4347 19.1944 20.2893L19.1943 20.2892L12.3712 13.4674L12.0176 13.1138L11.6641 13.4675L4.84299 20.2915C4.69757 20.4369 4.50047 20.5186 4.29492 20.5186C4.08937 20.5186 3.89227 20.4369 3.74685 20.2915C3.60132 20.146 3.51953 19.9486 3.51953 19.7432C3.51953 19.5379 3.60125 19.3407 3.74685 19.1951L10.569 12.373L10.9225 12.0194L10.569 11.6659L3.75045 4.84635C3.61085 4.70014 3.53383 4.50566 3.53566 4.30409C3.53749 4.1011 3.61911 3.90662 3.76299 3.76275C3.90669 3.61905 4.1011 3.53749 4.30433 3.53566C4.50614 3.53383 4.70055 3.61077 4.84658 3.7502L11.6641 10.5675L12.0177 10.9211L12.3713 10.5675L19.1924 3.74563C19.1924 3.74562 19.1924 3.74561 19.1924 3.74561C19.2649 3.67311 19.3502 3.61603 19.4436 3.57736C19.5372 3.53859 19.6382 3.51855 19.7405 3.51855C19.8428 3.51855 19.9438 3.53859 20.0374 3.57736C20.1307 3.61604 20.216 3.67312 20.2885 3.74563C20.3606 3.81764 20.4176 3.90303 20.4566 3.99705C20.4957 4.09163 20.5159 4.19246 20.5159 4.2937C20.5159 4.39493 20.4957 4.49577 20.4566 4.59035C20.4176 4.68436 20.3606 4.76975 20.2885 4.84177L20.2885 4.8418L13.4674 11.6639L13.1139 12.0175L13.4674 12.371L20.2885 19.1931Z" fill="#989898" stroke="#989898"/>
</svg>
