<svg width="24" height="24" viewBox="0 0 24 24" fill="none" xmlns="http://www.w3.org/2000/svg">
<g clip-path="url(#clip0_5195_3517)">
<path d="M21.6659 20.047L17.8661 16.247C19.2395 14.4634 19.8825 12.2239 19.6649 9.98332C19.4473 7.74278 18.3851 5.66922 16.6942 4.18327C15.0032 2.69732 12.8103 1.91041 10.5604 1.98259C8.31048 2.05476 6.17218 2.98043 4.57993 4.5717C2.98768 6.16296 2.06072 8.30058 1.98716 10.5505C1.9136 12.8003 2.69904 14.9938 4.18394 16.6857C5.66884 18.3776 7.74187 19.4411 9.98228 19.6601C12.2227 19.8791 14.4625 19.2372 16.2469 17.8649L20.0467 21.665C20.1523 21.7718 20.2781 21.8565 20.4168 21.9142C20.5556 21.9719 20.7046 22.0014 20.8548 22.0009V22.0009C21.0812 22.0011 21.3028 21.9341 21.4911 21.8085C21.6794 21.6829 21.8262 21.5042 21.9129 21.2951C21.9997 21.086 22.022 20.856 21.9779 20.634C21.9338 20.4119 21.825 20.2081 21.6649 20.048L21.6659 20.047ZM10.85 4.29289C12.1477 4.29269 13.4164 4.67726 14.4955 5.39811C15.5746 6.11897 16.4157 7.14379 16.9125 8.34269C17.4092 9.5416 17.5391 10.8609 17.286 12.1337C17.0329 13.4065 16.4077 14.5757 15.4901 15.4933C14.5725 16.411 13.4035 17.0359 12.1307 17.289C10.8579 17.5421 9.53861 17.4119 8.3397 16.9152C7.14079 16.4185 6.11622 15.5776 5.39536 14.4985C4.67451 13.4194 4.2897 12.1507 4.28989 10.8529C4.29201 9.11378 4.98394 7.4465 6.21372 6.21672C7.4435 4.98694 9.11078 4.29501 10.85 4.29289V4.29289Z" fill="#989898"/>
</g>
<defs>
<clipPath id="clip0_5195_3517">
<rect width="24" height="24" fill="white"/>
</clipPath>
</defs>
</svg>
