<svg width="32" height="32" viewBox="0 0 32 32" fill="none" xmlns="http://www.w3.org/2000/svg">
<path d="M16.0142 4.23902C19.924 4.23902 20.3866 4.25379 21.9306 4.32391C23.3577 4.38912 24.134 4.62779 24.6495 4.82832C25.3335 5.09406 25.8207 5.41147 26.3337 5.92326C26.8455 6.43505 27.1629 6.92347 27.4287 7.6075C27.6292 8.12298 27.8679 8.89928 27.9331 10.3264C28.0032 11.8704 28.018 12.333 28.018 16.244C28.018 20.155 28.0032 20.6164 27.9331 22.1603C27.8679 23.5875 27.6292 24.3638 27.4287 24.8792C27.1629 25.5633 26.8455 26.0505 26.3337 26.5635C25.8219 27.0753 25.3335 27.3927 24.6495 27.6584C24.134 27.859 23.3577 28.0976 21.9306 28.1628C20.3866 28.233 19.924 28.2477 16.0142 28.2477C12.1044 28.2477 11.6406 28.233 10.0979 28.1628C8.67077 28.0976 7.89447 27.859 7.37899 27.6584C6.69496 27.3927 6.20777 27.0753 5.69475 26.5635C5.18296 26.0517 4.86555 25.5633 4.59981 24.8792C4.39927 24.3638 4.1606 23.5875 4.0954 22.1603C4.02527 20.6164 4.01051 20.1538 4.01051 16.244C4.01051 12.3342 4.02527 11.8716 4.0954 10.3276C4.1606 8.90051 4.39927 8.12421 4.59981 7.60873C4.86555 6.9247 5.18296 6.43751 5.69475 5.92449C6.20654 5.4127 6.69496 5.09529 7.37899 4.82955C7.89447 4.62902 8.67077 4.39035 10.0979 4.32514C11.6419 4.25502 12.1044 4.24025 16.0142 4.24025M16.0142 1.6001C12.038 1.6001 11.5385 1.61732 9.97731 1.68868C8.41856 1.76003 7.35438 2.00732 6.42307 2.36902C5.45977 2.74302 4.6441 3.24374 3.82966 4.05817C3.01522 4.87261 2.5145 5.68828 2.1405 6.65158C1.7788 7.58289 1.53152 8.64708 1.46016 10.2058C1.38881 11.7683 1.37158 12.2665 1.37158 16.2428C1.37158 20.219 1.38881 20.7185 1.46016 22.2797C1.53152 23.8384 1.7788 24.9026 2.1405 25.8339C2.5145 26.7972 3.01522 27.6129 3.82966 28.4273C4.6441 29.2418 5.45977 29.7425 6.42307 30.1165C7.35438 30.4782 8.41856 30.7255 9.97731 30.7968C11.5385 30.8682 12.038 30.8854 16.0142 30.8854C19.9905 30.8854 20.49 30.8682 22.0512 30.7968C23.6099 30.7255 24.6741 30.4782 25.6054 30.1165C26.5687 29.7425 27.3844 29.2418 28.1988 28.4273C29.0133 27.6129 29.514 26.7972 29.888 25.8339C30.2497 24.9026 30.497 23.8384 30.5683 22.2797C30.6397 20.7185 30.6569 20.219 30.6569 16.2428C30.6569 12.2665 30.6397 11.767 30.5683 10.2058C30.497 8.64708 30.2497 7.58289 29.888 6.65158C29.514 5.68828 29.0133 4.87261 28.1988 4.05817C27.3844 3.24374 26.5687 2.74302 25.6054 2.36902C24.6741 2.00732 23.6099 1.76003 22.0512 1.68868C20.49 1.61732 19.9905 1.6001 16.0142 1.6001Z" fill="white"/>
<path d="M16.014 8.72314C11.8606 8.72314 8.49463 12.0892 8.49463 16.2425C8.49463 20.3959 11.8606 23.762 16.014 23.762C20.1674 23.762 23.5334 20.3959 23.5334 16.2425C23.5334 12.0892 20.1674 8.72314 16.014 8.72314ZM16.014 21.1243C13.3185 21.1243 11.1336 18.9393 11.1336 16.2438C11.1336 13.5483 13.3185 11.3633 16.014 11.3633C18.7096 11.3633 20.8945 13.5483 20.8945 16.2438C20.8945 18.9393 18.7096 21.1243 16.014 21.1243Z" fill="white"/>
<path d="M23.831 10.1836C24.8013 10.1836 25.5879 9.39701 25.5879 8.42675C25.5879 7.45648 24.8013 6.66992 23.831 6.66992C22.8608 6.66992 22.0742 7.45648 22.0742 8.42675C22.0742 9.39701 22.8608 10.1836 23.831 10.1836Z" fill="white"/>
</svg>
