<svg width="32" height="32" viewBox="0 0 32 32" fill="none" xmlns="http://www.w3.org/2000/svg">
<path fill-rule="evenodd" clip-rule="evenodd" d="M30.2909 14.0627C30.2909 7.69482 23.907 2.51416 16.0592 2.51416C8.21127 2.51416 1.82861 7.69482 1.82861 14.0627C1.82861 19.7711 6.89117 24.5532 13.7302 25.4562C14.194 25.5559 14.824 25.7613 14.9839 26.1575C15.1278 26.5167 15.0774 27.0802 15.0294 27.4443L14.8264 28.6623L14.8209 28.6944C14.7536 29.0795 14.5839 30.0516 16.0592 29.43C17.5785 28.7902 24.2552 24.6036 27.2411 21.1675C29.303 18.9063 30.2921 16.6106 30.2921 14.0615L30.2909 14.0627ZM13.1681 10.9845H12.1703C12.0178 10.9845 11.8935 11.1088 11.8935 11.2613V17.4619C11.8935 17.6145 12.0178 17.7387 12.1703 17.7387H13.1681C13.3206 17.7387 13.4449 17.6145 13.4449 17.4619V11.2613C13.4449 11.1088 13.3206 10.9845 13.1681 10.9845ZM19.0414 10.9845H20.0391L20.0379 10.9858C20.1904 10.9858 20.3147 11.11 20.3147 11.2626V17.4631C20.3147 17.6157 20.1917 17.7399 20.0379 17.7399H19.0402C19.0156 17.7399 18.9909 17.7363 18.9688 17.7301H18.9651L18.962 17.729L18.9559 17.727C18.9528 17.7261 18.9497 17.7252 18.9467 17.7239C18.945 17.7234 18.9437 17.7226 18.9424 17.7219L18.9406 17.721C18.9397 17.7205 18.9389 17.7203 18.938 17.7203L18.9344 17.7184C18.9311 17.7166 18.9282 17.715 18.9245 17.7141C18.9196 17.7129 18.9147 17.7104 18.911 17.708L18.9036 17.7043L18.8993 17.7023C18.8966 17.7009 18.894 17.6992 18.8913 17.6975L18.8864 17.6944C18.8864 17.6932 18.8839 17.692 18.8839 17.692C18.8581 17.6735 18.8335 17.6501 18.8138 17.6231L15.9682 13.7809V17.4644C15.9682 17.6169 15.8439 17.7412 15.6901 17.7412H14.6924C14.5398 17.7412 14.4156 17.6169 14.4156 17.4644V11.2638C14.4156 11.1112 14.5398 10.987 14.6924 10.987H15.6901H15.7H15.7147C15.7172 10.987 15.7197 10.9873 15.7221 10.9876C15.7246 10.9879 15.727 10.9882 15.7295 10.9882C15.7344 10.9895 15.7381 10.9895 15.7418 10.9895L15.7578 10.9931L15.76 10.9939C15.7626 10.9948 15.7647 10.9956 15.7676 10.9956L15.7701 10.9962C15.7745 10.9973 15.7795 10.9985 15.7836 11.0005L15.7857 11.0018L15.7881 11.0032C15.7887 11.0035 15.7894 11.0037 15.7901 11.0039C15.7908 11.0041 15.7915 11.0042 15.7922 11.0042C15.7984 11.0054 15.8033 11.0079 15.8082 11.0104C15.8107 11.0116 15.8144 11.0128 15.8169 11.0141C15.8193 11.0153 15.8218 11.0168 15.8242 11.0184C15.8267 11.0199 15.8291 11.0214 15.8316 11.0227C15.8339 11.0234 15.8358 11.0247 15.8374 11.0258L15.8374 11.0258L15.8402 11.0276C15.8427 11.0294 15.8451 11.031 15.8476 11.0325C15.8501 11.0341 15.8525 11.0356 15.855 11.0374C15.8562 11.0387 15.8574 11.0396 15.8587 11.0405C15.8599 11.0414 15.8611 11.0424 15.8624 11.0436L15.8657 11.0463L15.8698 11.0497L15.8698 11.0498C15.8722 11.0519 15.8747 11.0541 15.8771 11.0559L15.882 11.0608C15.8882 11.0657 15.8944 11.0719 15.8993 11.0793H15.9005C15.9091 11.0879 15.9165 11.0977 15.9226 11.1076L18.7646 14.9448V11.2613C18.7646 11.1088 18.8876 10.9845 19.0414 10.9845ZM10.7616 16.1861H8.0489V11.2613C8.0489 11.1088 7.92464 10.9845 7.77209 10.9845H6.77436C6.62181 10.9845 6.49755 11.1088 6.49755 11.2613V17.4619C6.49755 17.5369 6.52706 17.6046 6.57504 17.6538C6.57504 17.6546 6.57614 17.6555 6.57723 17.6563C6.57778 17.6567 6.57832 17.6571 6.57873 17.6575L6.58243 17.6612C6.63287 17.7092 6.69931 17.7387 6.77436 17.7387H10.7629C10.9154 17.7387 11.0397 17.6145 11.0397 17.4619V16.4642C11.0397 16.3116 10.9154 16.1873 10.7629 16.1873L10.7616 16.1861ZM25.8288 12.26C25.8288 12.4126 25.7045 12.5368 25.552 12.5368V12.5405H22.8392V13.5887H25.552C25.7045 13.5887 25.8288 13.7118 25.8288 13.8655V14.8633C25.8288 15.0158 25.7045 15.1401 25.552 15.1401H22.8392V16.1883H25.552C25.7045 16.1883 25.8288 16.3125 25.8288 16.4651V17.4628C25.8288 17.6154 25.7045 17.7397 25.552 17.7397H21.5635C21.4884 17.7397 21.4207 17.7101 21.3715 17.6621L21.3678 17.6585C21.3666 17.6572 21.3641 17.656 21.3641 17.6548C21.3162 17.6056 21.2867 17.5379 21.2867 17.4628V11.2623C21.2867 11.1885 21.3149 11.1208 21.3629 11.0716L21.3678 11.0667C21.3691 11.0667 21.3715 11.0642 21.3715 11.0642C21.4207 11.015 21.4884 10.9855 21.5635 10.9855H25.552C25.7045 10.9855 25.8288 11.1085 25.8288 11.2623V12.26Z" fill="white"/>
</svg>
