<svg width="32" height="32" viewBox="0 0 32 32" fill="none" xmlns="http://www.w3.org/2000/svg">
<path d="M30.6238 8.80216C30.2744 7.49684 29.2472 6.46834 27.9406 6.11894C25.5748 5.48535 16.0857 5.48535 16.0857 5.48535C16.0857 5.48535 6.59668 5.48535 4.23087 6.11894C2.92556 6.46834 1.89705 7.49561 1.54765 8.80216C0.914065 11.168 0.914062 16.105 0.914062 16.105C0.914062 16.105 0.914065 21.0421 1.54765 23.4079C1.89705 24.7132 2.92432 25.7417 4.23087 26.0911C6.59668 26.7247 16.0857 26.7247 16.0857 26.7247C16.0857 26.7247 25.5748 26.7247 27.9406 26.0911C29.2459 25.7417 30.2744 24.7145 30.6238 23.4079C31.2574 21.0421 31.2574 16.105 31.2574 16.105C31.2574 16.105 31.2574 11.168 30.6238 8.80216ZM13.0519 20.657V11.5543L20.9355 16.1063L13.0519 20.657Z" fill="white"/>
</svg>
