<svg width="275" height="110" viewBox="0 0 275 110" fill="none" xmlns="http://www.w3.org/2000/svg">
<g clip-path="url(#clip0_5172_3353)">
<path d="M108.529 51.1463C104.559 51.1463 100.666 49.0265 98.5757 45.6136C96.2454 41.825 95.7943 35.4353 100.004 29.662C102.77 25.8734 106.95 22.9266 113.174 20.4158C115.099 19.634 117.068 18.9424 118.978 18.2809C121.909 17.2586 124.931 16.1911 127.743 14.838C131.02 13.2444 134.343 10.4029 133.802 7.18547C133.606 5.99775 132.734 4.9303 131.471 4.31388C130.208 3.69747 128.825 3.68243 127.773 4.25374L126.705 2.31429C128.389 1.39719 130.524 1.39719 132.433 2.31429C134.343 3.24643 135.666 4.9303 135.982 6.80961C136.899 12.3573 130.644 15.8754 128.705 16.8076C125.788 18.2208 122.691 19.3033 119.699 20.3557C117.805 21.0172 115.865 21.6938 113.986 22.4605C108.168 24.8059 104.289 27.5121 101.778 30.955C98.711 35.1647 98.1548 40.7124 100.455 44.441C102.274 47.4178 105.973 49.237 109.446 48.8611C113.249 48.4552 115.339 45.4483 117.564 42.276C118.361 41.1334 119.188 39.9607 120.09 38.9083C124.255 34.0822 130.088 30.519 136.207 26.9859C145.754 21.4682 155.466 19.0778 165.75 16.552L167.118 16.2212C170.606 15.5597 173.673 15.4394 176.454 15.8303H176.484C182.062 16.8226 186.182 18.6117 189.474 21.4682L189.549 21.5434C190.196 22.235 190.842 22.8965 191.489 23.528C192.767 24.8059 193.97 26.0237 195.052 27.4069C196.45 28.8802 198.089 29.7823 199.442 29.8425C204.373 29.7071 208.899 32.0976 212.913 36.9387L211.214 38.352C207.651 34.0521 203.712 31.9473 199.472 32.0676H199.442H199.412C196.601 31.9774 194.285 29.8124 193.413 28.8953L193.353 28.8201C192.346 27.5271 191.173 26.3545 189.94 25.1066C189.309 24.4751 188.647 23.8136 188.001 23.122C185.039 20.5511 181.281 18.9424 176.139 18.0404C173.598 17.6796 170.801 17.7998 167.569 18.4012L166.291 18.7169C156.173 21.2127 146.596 23.5731 137.32 28.9254C131.381 32.3532 125.713 35.8112 121.774 40.3816C120.947 41.3438 120.195 42.4263 119.383 43.569C117.083 46.8615 114.497 50.5901 109.686 51.0862C109.295 51.1313 108.919 51.1463 108.529 51.1463Z" fill="#E0E2B4" stroke="#E0E2B4" stroke-width="1.20332"/>
<path d="M231.781 107.646C232.984 106.563 233.54 105.301 234.021 104.188C234.743 102.519 235.194 101.512 237.419 101.286C239.704 101.061 241.764 101.828 243.944 102.639C246.65 103.647 249.447 104.684 252.905 103.978C254.333 103.677 255.776 103.136 257.46 102.264C260.557 100.655 264.707 97.7382 266.962 93.0174C269.037 88.6573 267.879 85.2896 266.646 81.7264C266.376 80.9446 266.105 80.1478 265.849 79.3059C265.519 78.2234 265.519 77.171 265.519 76.0584C265.519 75.1113 265.519 74.1491 265.308 73.1117C265.128 72.1645 264.541 71.2173 263.925 70.21C263.339 69.2478 262.527 67.9097 262.722 67.3084C262.903 66.7671 264 65.8951 264.872 65.2035C266 64.3165 267.157 63.3994 267.774 62.3169C269.368 59.5506 270.54 56.0776 271.247 52.0183V51.9431C271.788 47.0569 270.3 42.321 268.947 38.7428L268.916 38.6676C268.856 38.5323 268.932 37.9761 268.977 37.6603C269.022 37.3596 269.067 37.0138 269.097 36.653C269.232 36.1719 269.383 35.7058 269.533 35.2247C270.209 33.0447 270.901 30.8046 270.691 28.4592V28.384C270.585 27.8278 270.495 27.2715 270.42 26.7303C269.999 23.994 269.608 21.408 268.24 18.7319C267.894 17.8599 267.278 17.6043 266.917 17.5141C265.564 17.1984 264.196 18.5214 263.098 19.5889C262.993 19.6941 262.903 19.7843 262.812 19.8745C262.211 20.3256 261.55 20.7315 260.873 21.1675C259.685 21.9042 258.467 22.6709 257.34 23.7384C256.904 24.1443 256.498 24.3698 256.152 24.3698C253.732 24.024 251.491 23.4377 249.131 22.8213C248.68 22.701 248.229 22.5807 247.763 22.4755H247.673C243.448 21.7087 238.817 21.4531 233.51 21.6636H233.45C230.353 21.9493 227.617 22.6559 225.106 23.8136C224.114 24.1443 222.941 23.2122 222.114 22.3402C221.934 22.0846 221.768 21.844 221.603 21.6035C220.926 20.6112 220.325 19.7542 219.513 18.8822L217.589 16.8225C217.589 16.8225 217.468 16.6872 217.393 16.597C216.777 15.9054 215.845 14.868 214.627 14.8981C214.191 14.8981 213.574 15.0635 213.018 15.725C212.567 16.176 212.056 17.033 212.011 18.0403C211.83 19.9046 211.47 21.829 211.124 23.6782C210.492 27.061 209.846 30.549 210.177 34.0972V34.1723C210.237 34.458 210.267 34.7587 210.312 35.0894C210.507 36.6681 210.763 38.8481 212.627 39.9756L213.77 38.0813C212.838 37.51 212.672 36.1418 212.507 34.8338C212.462 34.5031 212.432 34.1723 212.372 33.8566C212.086 30.6242 212.672 27.4519 213.304 24.0842C213.665 22.1748 214.026 20.1902 214.221 18.2207V18.1456C214.236 17.7998 214.446 17.4239 214.597 17.2736L214.702 17.1533C214.702 17.1533 214.732 17.1232 214.732 17.1082C215.018 17.2284 215.544 17.8148 215.754 18.0403C215.845 18.1305 215.92 18.2207 215.995 18.2959L217.919 20.3556C218.626 21.1073 219.152 21.8591 219.799 22.8213C219.979 23.0769 220.16 23.3475 220.37 23.6331L220.475 23.7534C222.355 25.768 224.189 26.4596 225.918 25.8282L226.008 25.7981C228.338 24.7307 230.774 24.0992 233.661 23.8286C238.772 23.6331 243.223 23.8737 247.282 24.5803C247.733 24.7006 248.169 24.8058 248.605 24.9261C251.055 25.5576 253.371 26.1589 255.942 26.5348H256.062C257.024 26.5799 257.971 26.1589 258.873 25.317C259.851 24.3999 260.978 23.6933 262.076 23.0167C262.797 22.5657 263.534 22.0996 264.226 21.5885L264.316 21.5133C264.421 21.408 264.541 21.2878 264.677 21.1675C265.023 20.8367 265.834 20.0549 266.331 19.7693C267.503 22.0996 267.864 24.3999 268.27 27.046C268.345 27.5872 268.435 28.1285 268.526 28.6847C268.691 30.5791 268.09 32.5185 267.458 34.5632C267.293 35.1045 267.127 35.6307 266.977 36.1719L266.947 36.3072V36.4425C266.947 36.7282 266.887 37.0138 266.842 37.3296C266.736 38.0362 266.616 38.818 266.932 39.5547C268.195 42.8923 269.578 47.2674 269.112 51.6725C268.435 55.4612 267.368 58.6786 265.91 61.2194C265.504 61.926 264.511 62.7078 263.549 63.4595C262.271 64.4668 261.053 65.429 260.663 66.5867C260.136 68.1653 261.159 69.8642 262.076 71.3526C262.557 72.1495 263.053 72.9613 263.173 73.5176C263.339 74.3445 263.339 75.1714 263.339 76.0584C263.339 77.2762 263.339 78.5391 263.775 79.9373C264.045 80.8093 264.331 81.6362 264.602 82.4481C265.774 85.8459 266.691 88.522 265.008 92.0702C263.023 96.2347 259.279 98.8507 256.483 100.309C254.979 101.091 253.717 101.572 252.499 101.828C249.672 102.414 247.282 101.527 244.756 100.58C242.426 99.7227 240.035 98.8207 237.239 99.1063C233.721 99.4521 232.819 101.512 232.022 103.316C231.586 104.308 231.18 105.255 230.323 106.022C227.647 108.428 223.738 108.262 221.047 107.045C216.717 105.075 212.432 103.346 207.606 103.887C200.013 104.729 192.301 104.158 185.881 102.294C182.408 101.286 179.311 99.9182 176.62 98.2193C181.28 93.8593 184.528 88.5822 185.896 83.0044C187.865 75.0511 185.716 66.4965 180.438 61.2044C177.822 58.5733 174.846 57.5059 172.29 58.2726C170.741 58.7387 169.568 59.8061 168.712 60.6932C164.998 64.527 162.773 69.8492 162.457 75.6976C162.156 81.3807 163.645 87.0186 166.667 91.5891C168.381 94.19 170.501 96.4603 173.011 98.4147C172.485 98.8357 171.959 99.2416 171.403 99.6325C163.299 105.436 153.121 108.217 142.762 107.435C132.373 106.654 122.029 102.504 115.775 96.6106C111.881 92.9422 109.055 87.8304 107.626 81.8467C107.266 80.3433 107.22 78.4489 107.175 76.4493C107.07 72.1044 106.965 67.158 103.296 64.6773C100.921 63.0686 98.0644 62.6326 95.3131 62.4221C85.5106 61.6253 75.6179 62.9784 66.056 64.2714C62.598 64.7375 59.0048 65.2336 55.4867 65.6095C45.2031 66.707 34.2129 67.0227 20.8923 66.6017C13.6908 66.3762 8.15811 66.0906 2.94113 65.6997C1.82858 65.6095 0.595734 65.6245 -0.71228 65.6245C-4.00482 65.6245 -7.73337 65.6245 -9.92841 64.1361L-11.1763 65.9703C-8.40991 67.8496 -4.32056 67.8346 -0.71228 67.8346C0.550629 67.8346 1.73837 67.8346 2.76071 67.9097C8.0228 68.3157 13.5855 68.5863 20.8171 68.8118C34.243 69.2328 45.3234 68.9171 55.7122 67.8045C59.2603 67.4286 62.8536 66.9325 66.3416 66.4664C75.7833 65.1885 85.5557 63.8504 95.1176 64.6322C97.5532 64.8277 100.079 65.1885 102.034 66.5115C104.755 68.3608 104.86 72.5103 104.95 76.5095C104.995 78.6293 105.04 80.6289 105.461 82.3729C106.995 88.7776 110.032 94.2652 114.242 98.2343C120.947 104.549 131.546 108.819 142.582 109.646C153.467 110.457 164.156 107.541 172.681 101.437C173.432 100.895 174.154 100.339 174.861 99.7528C177.853 101.737 181.31 103.301 185.234 104.429C191.925 106.383 199.953 106.969 207.816 106.097C212.071 105.631 216.055 107.24 220.099 109.074C221.678 109.796 223.362 110.142 225.001 110.142C227.542 110.142 229.977 109.3 231.781 107.676V107.646ZM178.86 62.7228C183.596 67.4737 185.505 75.2165 183.731 82.4331C182.423 87.7402 179.281 92.7618 174.725 96.8962C172.245 95.032 170.17 92.852 168.501 90.3262C162.698 81.546 163.495 69.1877 170.29 62.1816C170.952 61.49 171.854 60.6631 172.921 60.3474C173.267 60.2421 173.613 60.197 173.959 60.197C176.154 60.197 178.213 62.0764 178.86 62.7228Z" fill="#E0E2B4" stroke="#E0E2B4" stroke-width="1.20332"/>
<path d="M237.735 78.494C236.442 78.494 235.164 78.2684 233.916 77.7573C231.826 76.9003 230.233 75.3668 228.684 73.8934C228.053 73.292 227.451 72.7207 226.82 72.1795C225.331 70.9316 223.663 69.9243 221.904 68.8569C220.054 67.7443 218.145 66.5866 216.446 65.1133C210.267 59.7459 208.057 50.3494 211.184 42.787C211.319 42.4713 211.47 42.1706 211.62 41.8699C211.936 41.2234 212.251 40.6221 212.221 40.0959C212.191 39.5847 211.65 38.7728 211.214 38.1113C211.004 37.7956 210.793 37.4799 210.628 37.1942L212.552 36.0967C212.687 36.3222 212.868 36.5928 213.048 36.8785C213.665 37.7956 214.356 38.848 214.416 39.9756C214.476 41.0881 213.995 42.0353 213.574 42.8622C213.439 43.1328 213.304 43.3884 213.214 43.629C210.447 50.3343 212.417 58.6635 217.889 63.4294C219.438 64.7675 221.182 65.8199 223.031 66.9475C224.79 67.9999 226.609 69.0974 228.233 70.4655C228.925 71.0369 229.571 71.6683 230.203 72.2697C231.661 73.6679 233.044 74.9909 234.743 75.6825C238.938 77.4115 243.734 74.9458 247.898 72.5102L249.011 74.4196C245.327 76.5695 241.463 78.4639 237.72 78.4639L237.735 78.494Z" fill="#E0E2B4" stroke="#E0E2B4" stroke-width="1.20332"/>
</g>
<defs>
<clipPath id="clip0_5172_3353">
<rect width="275" height="110" fill="white" transform="matrix(-1 0 0 1 275 0)"/>
</clipPath>
</defs>
</svg>
