<svg width="44" height="80" viewBox="0 0 44 80" fill="none" xmlns="http://www.w3.org/2000/svg">
<g clip-path="url(#clip0_5172_3549)">
<path d="M41.9316 19.8682C41.6903 15.7021 40.6331 7.74556 37.4615 6.75979C34.3244 5.78576 32.8994 7.94506 32.8994 7.94506C32.8994 7.94506 32.118 1.19723 28.0387 0.199722C22.994 -1.03249 21.4542 3.47389 21.4542 3.47389C21.4542 3.47389 19.9143 -1.00902 14.8697 0.211457C10.7903 1.20896 10.0089 7.9568 10.0089 7.9568C10.0089 7.9568 8.57247 5.78576 5.44685 6.75979C2.27527 7.74556 1.21807 15.7021 0.976756 19.8682C0.700966 24.445 0 80.0002 0 80.0002H44C44 80.0002 42.1959 24.445 41.9316 19.8682Z" fill="#EFF0D7"/>
<path d="M22.1781 16.9697C15.6855 16.9697 9.71008 22.0277 13.123 25.5131C16.5359 28.9985 18.5583 24.4686 22.3505 24.4686C25.9357 24.4686 27.8203 28.1301 30.8885 26.0412C33.9566 23.9523 29.521 16.9697 22.1781 16.9697Z" fill="#FFE142"/>
<path d="M6.33148 9.70593C4.57332 9.87022 4.12516 11.7948 4.35499 13.7664C4.57332 15.7262 5.67648 17.0405 6.88306 16.9114C8.08964 16.7824 9.08938 14.9516 8.97447 12.851C8.85956 10.7504 7.7564 9.57684 6.33148 9.70593Z" fill="#FFE142"/>
<path d="M16.4783 10.1399C17.6849 10.0108 18.6846 8.18007 18.5697 6.07944C18.4548 3.99055 17.3631 2.80527 15.9267 2.93436C14.1685 3.09866 13.7204 5.02326 13.9502 6.9948C14.1685 8.96634 15.2717 10.269 16.4783 10.1399Z" fill="#FFE142"/>
<path d="M27.1194 10.1399C28.326 10.0108 29.3257 8.18007 29.2108 6.07944C29.0959 3.99055 28.0042 2.80527 26.5678 2.93436C24.8096 3.09866 24.3615 5.02326 24.5913 6.9948C24.8096 8.96634 25.9013 10.269 27.1194 10.1399Z" fill="#FFE142"/>
<path d="M38.3001 12.8392C38.1852 10.7503 37.0936 9.56504 35.6572 9.69413C33.899 9.85842 33.4508 11.783 33.6807 13.7546C33.899 15.7144 35.0022 17.0287 36.2087 16.8996C37.4153 16.7706 38.4151 14.9398 38.3001 12.8392Z" fill="#FFE142"/>
<g opacity="0.4">
<path d="M17.6276 19.1882C14.5594 20.5495 13.3068 22.8262 14.3181 23.8706C15.3523 24.9268 16.9151 21.7348 18.9031 21.2771C20.7647 20.8429 23.7869 20.6551 23.9937 19.7163C24.327 18.1555 20.937 17.7213 17.6276 19.1882Z" fill="white"/>
<path d="M6.09021 10.7851C5.28583 10.7381 5.12495 11.9117 5.06749 12.6862C5.02153 13.3434 5.056 14.2822 5.64205 14.3643C6.2396 14.4465 6.33153 13.4607 6.5039 12.8505C6.67627 12.2637 6.73372 10.8203 6.09021 10.7851Z" fill="white"/>
<path d="M15.2716 7.22959C15.8691 7.31174 15.9611 6.32597 16.1334 5.71573C16.3058 5.10549 16.3633 3.67378 15.7083 3.63857C14.9039 3.59163 14.743 4.76517 14.6855 5.5397C14.6511 6.19688 14.6855 7.14745 15.2716 7.22959Z" fill="white"/>
<path d="M26.4066 3.76748C25.6022 3.72054 25.4414 4.89407 25.3839 5.66861C25.3379 6.32579 25.3724 7.26462 25.9585 7.34677C26.556 7.42891 26.6479 6.44314 26.8203 5.8329C26.9927 5.24614 27.0501 3.80269 26.4066 3.76748Z" fill="white"/>
<path d="M35.7723 10.6215C34.968 10.5745 34.8071 11.7481 34.7496 12.5226C34.7037 13.1798 34.7381 14.1186 35.3242 14.2008C35.9217 14.2829 36.0137 13.2971 36.186 12.6869C36.3699 12.0884 36.4273 10.6567 35.7723 10.6215Z" fill="white"/>
</g>
<path d="M15.8211 42.228V43.81H13.2171V52H11.2571V43.81H8.65308V42.228H15.8211ZM21.7872 52.098C20.8725 52.098 20.0325 51.8833 19.2672 51.454C18.5018 51.0247 17.8952 50.432 17.4472 49.676C16.9992 48.9107 16.7752 48.0473 16.7752 47.086C16.7752 46.134 16.9992 45.28 17.4472 44.524C17.8952 43.7587 18.5018 43.1613 19.2672 42.732C20.0325 42.3027 20.8725 42.088 21.7872 42.088C22.7112 42.088 23.5512 42.3027 24.3072 42.732C25.0725 43.1613 25.6745 43.7587 26.1132 44.524C26.5612 45.28 26.7852 46.134 26.7852 47.086C26.7852 48.0473 26.5612 48.9107 26.1132 49.676C25.6745 50.432 25.0725 51.0247 24.3072 51.454C23.5418 51.8833 22.7018 52.098 21.7872 52.098ZM21.7872 50.348C22.3752 50.348 22.8932 50.2173 23.3412 49.956C23.7892 49.6853 24.1392 49.3027 24.3912 48.808C24.6432 48.3133 24.7692 47.7393 24.7692 47.086C24.7692 46.4327 24.6432 45.8633 24.3912 45.378C24.1392 44.8833 23.7892 44.5053 23.3412 44.244C22.8932 43.9827 22.3752 43.852 21.7872 43.852C21.1992 43.852 20.6765 43.9827 20.2192 44.244C19.7712 44.5053 19.4212 44.8833 19.1692 45.378C18.9172 45.8633 18.7912 46.4327 18.7912 47.086C18.7912 47.7393 18.9172 48.3133 19.1692 48.808C19.4212 49.3027 19.7712 49.6853 20.2192 49.956C20.6765 50.2173 21.1992 50.348 21.7872 50.348ZM35.3693 45.252C35.3693 45.7747 35.2433 46.2647 34.9913 46.722C34.7487 47.1793 34.3613 47.548 33.8293 47.828C33.3067 48.108 32.644 48.248 31.8413 48.248H30.2033V52H28.2433V42.228H31.8413C32.5973 42.228 33.2413 42.3587 33.7733 42.62C34.3053 42.8813 34.702 43.2407 34.9633 43.698C35.234 44.1553 35.3693 44.6733 35.3693 45.252ZM31.7573 46.666C32.2987 46.666 32.7 46.5447 32.9613 46.302C33.2227 46.05 33.3533 45.7 33.3533 45.252C33.3533 44.3 32.8213 43.824 31.7573 43.824H30.2033V46.666H31.7573Z" fill="#494E26"/>
</g>
<defs>
<clipPath id="clip0_5172_3549">
<rect width="44" height="80" fill="white"/>
</clipPath>
</defs>
</svg>
