<svg width="476" height="438" viewBox="0 0 476 438" fill="none" xmlns="http://www.w3.org/2000/svg">
<path d="M366.131 438C358.147 438 350.986 436.591 344.646 433.773C338.306 430.838 333.257 426.905 329.5 421.974C325.861 417.043 323.865 411.584 323.513 405.596H348.344C348.814 409.353 350.633 412.464 353.803 414.93C357.091 417.395 361.141 418.628 365.955 418.628C370.651 418.628 374.291 417.689 376.873 415.81C379.574 413.932 380.924 411.525 380.924 408.59C380.924 405.42 379.28 403.072 375.993 401.546C372.823 399.902 367.716 398.141 360.671 396.262C353.392 394.501 347.405 392.681 342.709 390.803C338.13 388.924 334.138 386.048 330.733 382.174C327.446 378.299 325.802 373.075 325.802 366.5C325.802 361.099 327.328 356.168 330.381 351.707C333.551 347.246 338.012 343.723 343.765 341.14C349.635 338.558 356.504 337.266 364.37 337.266C375.993 337.266 385.268 340.201 392.195 346.071C399.122 351.824 402.937 359.632 403.642 369.494H380.043C379.691 365.62 378.048 362.567 375.112 360.336C372.295 357.988 368.479 356.814 363.665 356.814C359.204 356.814 355.74 357.636 353.275 359.28C350.927 360.923 349.753 363.213 349.753 366.148C349.753 369.435 351.396 371.959 354.684 373.72C357.971 375.364 363.078 377.067 370.005 378.828C377.05 380.589 382.861 382.408 387.44 384.287C392.019 386.165 395.952 389.101 399.239 393.092C402.644 396.967 404.405 402.133 404.522 408.59C404.522 414.225 402.937 419.274 399.768 423.735C396.715 428.197 392.254 431.719 386.383 434.302C380.63 436.767 373.88 438 366.131 438Z" fill="white" fill-opacity="0.9"/>
<path d="M289.225 359.104V406.301C289.225 409.588 289.988 411.995 291.514 413.521C293.158 414.93 295.858 415.635 299.615 415.635H311.062V436.415H295.565C274.784 436.415 264.394 426.318 264.394 406.125V359.104H252.771V338.851H264.394V314.725H289.225V338.851H311.062V359.104H289.225Z" fill="white" fill-opacity="0.9"/>
<path d="M134.824 387.281C134.824 377.419 136.761 368.672 140.636 361.041C144.628 353.409 149.97 347.539 156.662 343.43C163.471 339.321 171.044 337.266 179.38 337.266C186.659 337.266 192.999 338.734 198.399 341.669C203.917 344.604 208.32 348.302 211.607 352.764V338.851H236.439V436.415H211.607V422.15C208.437 426.729 204.035 430.545 198.399 433.597C192.881 436.532 186.483 438 179.203 438C170.985 438 163.471 435.887 156.662 431.66C149.97 427.433 144.628 421.504 140.636 413.873C136.761 406.124 134.824 397.26 134.824 387.281ZM211.607 387.633C211.607 381.645 210.433 376.538 208.085 372.312C205.737 367.968 202.567 364.68 198.575 362.45C194.584 360.101 190.298 358.927 185.719 358.927C181.141 358.927 176.914 360.043 173.04 362.273C169.165 364.504 165.995 367.792 163.53 372.136C161.182 376.362 160.008 381.411 160.008 387.281C160.008 393.151 161.182 398.317 163.53 402.778C165.995 407.122 169.165 410.468 173.04 412.816C177.031 415.165 181.258 416.339 185.719 416.339C190.298 416.339 194.584 415.223 198.575 412.993C202.567 410.644 205.737 407.357 208.085 403.131C210.433 398.787 211.607 393.621 211.607 387.633Z" fill="white" fill-opacity="0.9"/>
<path d="M0 374.776C0 362.683 2.70032 351.882 8.10097 342.372C13.619 332.745 21.0743 325.289 30.4667 320.006C39.9765 314.606 50.6017 311.905 62.3423 311.905C76.0787 311.905 88.1128 315.427 98.4444 322.472C108.776 329.516 115.997 339.261 120.106 351.706H91.7523C88.9346 345.835 84.9428 341.433 79.777 338.498C74.7285 335.562 68.8583 334.095 62.1662 334.095C55.0044 334.095 48.6058 335.797 42.9704 339.202C37.4523 342.489 33.1083 347.186 29.9384 353.291C26.8858 359.396 25.3596 366.557 25.3596 374.776C25.3596 382.877 26.8858 390.039 29.9384 396.261C33.1083 402.366 37.4523 407.121 42.9704 410.526C48.6058 413.813 55.0044 415.457 62.1662 415.457C68.8583 415.457 74.7285 413.989 79.777 411.054C84.9428 408.002 88.9346 403.54 91.7523 397.67H120.106C115.997 410.232 108.776 420.036 98.4444 427.08C88.2302 434.007 76.1961 437.47 62.3423 437.47C50.6017 437.47 39.9765 434.829 30.4667 429.545C21.0743 424.145 13.619 416.69 8.10097 407.18C2.70032 397.67 0 386.869 0 374.776Z" fill="#767E32"/>
<path d="M475.761 189.663L415.355 333.367H389.115L410.248 284.761L371.152 189.663H398.801L423.985 257.816L449.52 189.663H475.761Z" fill="white" fill-opacity="0.9"/>
<path d="M256.729 238.092C256.729 228.23 258.666 219.483 262.54 211.852C266.532 204.22 271.874 198.35 278.566 194.241C285.375 190.132 292.948 188.077 301.284 188.077C308.563 188.077 314.903 189.545 320.304 192.48C325.822 195.415 330.224 199.113 333.512 203.575V189.662H358.343V287.226H333.512V272.961C330.342 277.54 325.939 281.356 320.304 284.408C314.785 287.343 308.387 288.811 301.108 288.811C292.889 288.811 285.375 286.698 278.566 282.471C271.874 278.244 266.532 272.316 262.54 264.684C258.666 256.935 256.729 248.071 256.729 238.092ZM333.512 238.444C333.512 232.456 332.338 227.349 329.989 223.123C327.641 218.779 324.471 215.491 320.48 213.261C316.488 210.912 312.203 209.738 307.624 209.738C303.045 209.738 298.818 210.854 294.944 213.084C291.07 215.315 287.9 218.603 285.434 222.947C283.086 227.173 281.912 232.222 281.912 238.092C281.912 243.962 283.086 249.128 285.434 253.589C287.9 257.933 291.07 261.279 294.944 263.628C298.936 265.976 303.162 267.15 307.624 267.15C312.203 267.15 316.488 266.034 320.48 263.804C324.471 261.456 327.641 258.168 329.989 253.942C332.338 249.598 333.512 244.432 333.512 238.444Z" fill="white" fill-opacity="0.9"/>
<path d="M216.524 204.806C219.694 199.64 223.803 195.59 228.852 192.655C234.018 189.72 239.888 188.252 246.463 188.252V214.14H239.947C232.198 214.14 226.328 215.96 222.336 219.599C218.461 223.239 216.524 229.579 216.524 238.619V287.225H191.869V189.661H216.524V204.806Z" fill="white" fill-opacity="0.9"/>
<path d="M152.297 209.914V257.111C152.297 260.398 153.06 262.805 154.587 264.331C156.23 265.74 158.931 266.445 162.688 266.445H174.135V287.225H158.637C137.856 287.225 127.466 277.128 127.466 256.935V209.914H115.843V189.661H127.466V165.535H152.297V189.661H174.135V209.914H152.297Z" fill="white" fill-opacity="0.9"/>
<path d="M58.7184 288.458C50.1478 288.458 42.3991 286.99 35.4722 284.055C28.6627 281.12 23.262 276.893 19.2702 271.375C15.2784 265.857 13.2239 259.341 13.1064 251.827H39.5227C39.8749 256.876 41.636 260.868 44.8059 263.803C48.0933 266.738 52.5547 268.205 58.1901 268.205C63.943 268.205 68.4631 266.855 71.7504 264.155C75.0378 261.337 76.6815 257.698 76.6815 253.236C76.6815 249.597 75.5661 246.603 73.3354 244.255C71.1047 241.907 68.287 240.087 64.8822 238.795C61.5949 237.386 57.0161 235.86 51.1458 234.217C43.1622 231.868 36.6462 229.579 31.5978 227.348C26.6668 225 22.3815 221.537 18.7419 216.958C15.2197 212.262 13.4587 206.039 13.4587 198.29C13.4587 191.011 15.2784 184.671 18.918 179.271C22.5576 173.87 27.6647 169.761 34.2394 166.943C40.8141 164.008 48.3281 162.541 56.7813 162.541C69.461 162.541 79.734 165.652 87.6002 171.874C95.5837 177.979 99.9864 186.55 100.808 197.586H73.6876C73.4528 193.359 71.633 189.896 68.2283 187.196C64.9409 184.378 60.5382 182.969 55.0202 182.969C50.2066 182.969 46.3322 184.202 43.397 186.667C40.5793 189.133 39.1704 192.714 39.1704 197.41C39.1704 200.697 40.2271 203.456 42.3404 205.687C44.5711 207.8 47.2714 209.561 50.4414 210.97C53.7287 212.262 58.3075 213.788 64.1778 215.549C72.1614 217.897 78.6774 220.245 83.7258 222.593C88.7742 224.941 93.1182 228.464 96.7578 233.16C100.397 237.856 102.217 244.02 102.217 251.651C102.217 258.226 100.515 264.331 97.11 269.966C93.7052 275.602 88.7155 280.122 82.1408 283.527C75.5661 286.814 67.7587 288.458 58.7184 288.458Z" fill="#FFE142"/>
<path d="M314.584 46.844C317.754 42.3826 322.098 38.6844 327.616 35.7492C333.251 32.6967 339.65 31.1704 346.812 31.1704C355.147 31.1704 362.661 33.225 369.353 37.3342C376.163 41.4434 381.505 47.3136 385.379 54.945C389.371 62.4589 391.367 71.2056 391.367 81.1851C391.367 91.1646 389.371 100.029 385.379 107.777C381.505 115.409 376.163 121.338 369.353 125.564C362.661 129.791 355.147 131.904 346.812 131.904C339.65 131.904 333.31 130.437 327.792 127.502C322.391 124.566 317.989 120.868 314.584 116.407V176.812H289.929V32.7554H314.584V46.844ZM366.184 81.1851C366.184 75.3148 364.951 70.2664 362.485 66.0398C360.137 61.6958 356.967 58.4085 352.975 56.1778C349.101 53.9471 344.874 52.8317 340.296 52.8317C335.834 52.8317 331.608 54.0058 327.616 56.3539C323.741 58.5846 320.572 61.8719 318.106 66.2159C315.758 70.5599 314.584 75.6671 314.584 81.5373C314.584 87.4076 315.758 92.5147 318.106 96.8587C320.572 101.203 323.741 104.549 327.616 106.897C331.608 109.128 335.834 110.243 340.296 110.243C344.874 110.243 349.101 109.069 352.975 106.721C356.967 104.373 360.137 101.027 362.485 96.6826C364.951 92.3386 366.184 87.1728 366.184 81.1851Z" fill="white" fill-opacity="0.9"/>
<path d="M265.567 0V130.32H240.912V0H265.567Z" fill="white" fill-opacity="0.9"/>
<path d="M222.917 79.424C222.917 82.9462 222.683 86.1161 222.213 88.9339H150.889C151.476 95.9782 153.942 101.496 158.286 105.488C162.63 109.48 167.972 111.476 174.312 111.476C183.469 111.476 189.985 107.543 193.86 99.6765H220.452C217.634 109.069 212.233 116.818 204.25 122.923C196.266 128.91 186.463 131.904 174.84 131.904C165.447 131.904 156.994 129.85 149.48 125.74C142.084 121.514 136.272 115.585 132.046 107.954C127.936 100.322 125.882 91.5168 125.882 81.5373C125.882 71.4405 127.936 62.5764 132.046 54.945C136.155 47.3136 141.908 41.4434 149.304 37.3342C156.701 33.225 165.213 31.1704 174.84 31.1704C184.115 31.1704 192.392 33.1663 199.671 37.1581C207.068 41.1499 212.762 46.844 216.754 54.2406C220.863 61.5197 222.917 69.9142 222.917 79.424ZM197.382 72.3797C197.264 66.0398 194.975 60.9914 190.514 57.2344C186.052 53.36 180.593 51.4228 174.135 51.4228C168.03 51.4228 162.865 53.3013 158.638 57.0583C154.529 60.6979 152.005 65.805 151.065 72.3797H197.382Z" fill="white" fill-opacity="0.9"/>
<path d="M107.955 7.39453V130.318H83.2997V78.0139H30.6434V130.318H5.98828V7.39453H30.6434V57.9376H83.2997V7.39453H107.955Z" fill="#767E32"/>
</svg>
