<svg width="54" height="42" viewBox="0 0 54 42" fill="none" xmlns="http://www.w3.org/2000/svg">
<g clip-path="url(#clip0_5395_3785)">
<path fill-rule="evenodd" clip-rule="evenodd" d="M25.3146 0.629395C38.0936 0.629395 48.4553 8.85775 48.4553 19.02C48.4553 29.1822 38.0936 37.4106 25.3146 37.4106C12.5356 37.4106 2.17383 29.1706 2.17383 19.02C2.17383 8.86935 12.5356 0.629395 25.3146 0.629395Z" fill="#FFBCCC"/>
<path fill-rule="evenodd" clip-rule="evenodd" d="M2.98401 11.9165H3.43044C5.07223 11.9165 6.41445 13.2444 6.41445 14.8651V23.6038C6.41445 25.2245 5.06929 26.5495 3.43044 26.5495H2.98401C1.34222 26.5495 0 25.2216 0 23.6038V14.8651C0 13.2444 1.34515 11.9165 2.98401 11.9165Z" fill="#FFBCCC"/>
<path fill-rule="evenodd" clip-rule="evenodd" d="M10.4409 0C14.0622 0 17.0668 2.59492 17.6601 5.99876C14.353 6.2568 11.2515 7.07732 8.50247 8.31824C8.74625 7.92973 8.96359 7.51802 9.13981 7.07732C10.0473 4.74334 9.64497 2.2267 8.29395 0.321828C8.97533 0.115974 9.70078 0.00289935 10.4409 0.00289935V0Z" fill="#FFBCCC"/>
<path fill-rule="evenodd" clip-rule="evenodd" d="M9.56565 10.771C10.0444 10.771 10.4291 11.8322 10.4291 13.1311C10.4291 14.43 10.0444 15.4911 9.56565 15.4911C9.08692 15.4911 8.69336 14.43 8.69336 13.1311C8.69336 11.8322 9.08692 10.771 9.56565 10.771Z" fill="#B4798B"/>
<path fill-rule="evenodd" clip-rule="evenodd" d="M25.3137 2.11084C28.4563 2.11084 31.4315 2.65302 34.113 3.6272V6.58164C31.5108 5.4103 28.518 4.74635 25.3137 4.74635C22.923 4.74635 20.6439 5.11747 18.5586 5.79881V2.98934C20.6791 2.42107 22.9582 2.11084 25.3137 2.11084Z" fill="#FFACBB"/>
<path fill-rule="evenodd" clip-rule="evenodd" d="M25.3137 3.5835C28.4828 3.5835 31.4756 4.18656 34.113 5.25642V7.21348C31.5373 5.99866 28.5268 5.29991 25.3137 5.29991C22.9142 5.29991 20.6351 5.68843 18.5586 6.38427V4.54028C20.6615 3.91982 22.9406 3.5835 25.3137 3.5835Z" fill="#B4798B"/>
<path fill-rule="evenodd" clip-rule="evenodd" d="M43.5594 7.70361C46.6315 10.8233 48.4554 14.7519 48.4554 19.0169C48.4554 29.1675 38.0936 37.4075 25.3146 37.4075C17.5462 37.4075 10.6677 34.3573 6.46777 29.6865C22.2924 36.8479 45.207 24.2676 43.5594 7.70361Z" fill="#FFACBB"/>
<path fill-rule="evenodd" clip-rule="evenodd" d="M46.352 12.4352C52.4464 17.0974 52.044 7.44546 48.7692 10.2984C48.4638 10.5652 48.2729 10.9798 48.0438 11.3335C47.6238 10.9189 47.6326 11.0233 47.5973 10.5594C47.3712 6.71482 55.0603 7.31789 53.8737 13.0934C52.8693 17.9788 47.7471 17.9701 43.8703 15.7231C42.9539 15.0418 42.7718 13.7573 43.4503 12.8528C44.1405 11.9569 45.4328 11.7655 46.3491 12.4381L46.352 12.4352Z" fill="#FFACBB"/>
<path fill-rule="evenodd" clip-rule="evenodd" d="M19.2316 32.3247C21.4226 32.3247 23.2112 34.0904 23.2112 36.2446V38.0712C23.2112 40.2341 21.4226 41.9998 19.2316 41.9998C17.0494 41.9998 15.2607 40.2341 15.2607 38.0712V36.2446C15.2607 34.0904 17.0494 32.3247 19.2316 32.3247Z" fill="#FFACBB"/>
<path fill-rule="evenodd" clip-rule="evenodd" d="M32.5597 32.3247C34.7507 32.3247 36.5394 34.0904 36.5394 36.2446V38.0712C36.5394 40.2341 34.7507 41.9998 32.5597 41.9998C30.3775 41.9998 28.5889 40.2341 28.5889 38.0712V36.2446C28.5889 34.0904 30.3775 32.3247 32.5597 32.3247Z" fill="#FFACBB"/>
</g>
<defs>
<clipPath id="clip0_5395_3785">
<rect width="54" height="42" fill="white"/>
</clipPath>
</defs>
</svg>
