<svg width="81" height="68" viewBox="0 0 81 68" fill="none" xmlns="http://www.w3.org/2000/svg">
<g clip-path="url(#clip0_5172_3357)">
<path d="M63.243 49.0474C63.4573 49.0474 63.6715 48.9331 63.7858 48.7474C65.3715 46.1903 67.3715 40.8617 69.143 36.176C70.5001 32.5617 72.2001 28.0617 72.8001 27.576C73.5858 27.076 74.2001 27.0045 74.9287 26.9188C75.3573 26.8617 75.8001 26.8188 76.3001 26.6617C77.5144 26.2903 78.0858 25.2331 78.2715 24.8045C79.8144 23.4045 79.5144 21.4331 79.5001 21.3474C79.4715 21.1617 79.3573 21.0045 79.2001 20.9045L76.843 19.4331L75.7287 17.5903C75.7287 17.5903 75.6715 17.5188 75.643 17.4903C73.7001 15.4331 70.443 15.2474 69.3858 15.2474H69.3715C68.7287 14.4474 68.1715 12.8188 68.0001 12.2045C67.943 11.976 67.7573 11.8045 67.5287 11.7474C67.3001 11.6903 67.0715 11.7617 66.9001 11.9331C64.743 14.2474 66.3715 19.0331 66.443 19.2331C66.5573 19.5617 66.9287 19.7474 67.2573 19.6331C67.5858 19.5188 67.7715 19.1474 67.6573 18.8188C67.343 17.8903 66.8001 15.6188 67.243 13.976C67.5715 14.8045 68.0573 15.7903 68.6287 16.3617C68.7573 16.4903 68.943 16.5617 69.1144 16.5474C69.1573 16.5474 72.7715 16.3903 74.6573 18.3331L75.8144 20.2474C75.8715 20.3331 75.943 20.4045 76.0287 20.4617L78.2287 21.8331C78.2287 22.2903 78.143 23.2474 77.3144 23.9331C77.2287 24.0045 77.1573 24.1045 77.1144 24.2188C77.1144 24.2188 76.7715 25.176 75.9001 25.4331C75.5287 25.5474 75.1573 25.5903 74.7715 25.6331C74.0144 25.7188 73.143 25.8188 72.1001 26.4903C71.2858 27.0045 70.3144 29.4331 67.943 35.7188C66.1858 40.3617 64.2144 45.6188 62.6858 48.076C62.5001 48.376 62.5858 48.776 62.9001 48.9617C63.0001 49.0331 63.1287 49.0617 63.243 49.0617V49.0474Z" fill="#CACF87" stroke="#CACF87" stroke-width="0.5"/>
<path d="M64.1288 67.8615H69.9431C70.4431 67.8615 70.9002 67.633 71.2002 67.2473C71.6716 66.6473 71.6431 65.7901 71.1431 65.2044L70.7002 64.6901C69.9431 63.833 68.7716 63.4473 67.6573 63.6758L67.2859 63.7615C67.2859 63.7615 67.1431 63.7473 67.1145 63.6901L65.9431 61.6187C65.8859 61.5187 65.8431 61.4044 65.8288 61.3044L62.9859 43.0758C62.9288 42.7187 62.6002 42.4901 62.2573 42.533C61.9002 42.5901 61.6716 42.9187 61.7145 43.2616L64.5573 61.4901C64.6002 61.7615 64.6859 62.0044 64.8145 62.2473L65.9859 64.3187C66.3002 64.8758 66.9288 65.1473 67.5431 65.0187L67.9145 64.933C68.5859 64.7901 69.2716 65.0187 69.7288 65.533L70.1716 66.0473C70.2716 66.1615 70.2716 66.3187 70.1716 66.4473C70.1145 66.5187 70.0288 66.5615 69.9288 66.5615H64.5288L55.3716 47.3473C54.6859 45.9044 54.3288 44.3044 54.3288 42.7187V38.0901C54.3288 37.733 54.0431 37.4473 53.6859 37.4473C53.3288 37.4473 53.0431 37.733 53.0431 38.0901V42.7187C53.0431 44.5044 53.4431 46.2901 54.2145 47.9044L63.5431 67.4901C63.6431 67.7187 63.8716 67.8615 64.1288 67.8615Z" fill="#CACF87" stroke="#CACF87" stroke-width="0.5"/>
<path d="M12.486 64.1045C12.486 64.1045 12.586 64.1045 12.6431 64.0902C12.986 64.0045 13.2003 63.6617 13.1146 63.3188L12.1146 59.1902C11.9431 58.4759 12.3003 57.7474 12.9717 57.4759C17.7717 55.4474 21.786 51.4045 24.3003 48.3617C25.5717 46.8188 27.5431 46.0045 29.5289 46.1759L54.7431 48.3045C55.1003 48.3331 55.4146 48.0759 55.4431 47.7188C55.4717 47.3617 55.2146 47.0474 54.8574 47.0188L29.6431 44.8902C27.2289 44.6902 24.8574 45.6759 23.3146 47.5474C20.886 50.4759 17.0431 54.3759 12.4717 56.3045C11.2146 56.8331 10.5431 58.1759 10.8574 59.5045L11.8574 63.6331C11.9289 63.9331 12.186 64.1331 12.486 64.1331V64.1045Z" fill="#CACF87" stroke="#CACF87" stroke-width="0.5"/>
<path d="M45.9712 67.0904H46.9854C47.5569 67.0904 48.0854 66.8332 48.4426 66.3618C48.7854 65.9046 48.8997 65.3189 48.7426 64.7618L48.4997 63.8904C48.4569 63.7618 48.4997 63.6046 48.614 63.5189L52.2854 60.4332C52.714 60.0761 53.0283 59.5904 53.1854 59.0475L56.0426 49.0904C56.1426 48.7475 55.9426 48.3904 55.5997 48.2904C55.2569 48.1904 54.8997 48.3904 54.7997 48.7332L51.9426 58.6904C51.8569 58.9904 51.6854 59.2475 51.4569 59.4475L47.7854 62.5332C47.2854 62.9475 47.0854 63.6189 47.2569 64.2332L47.4997 65.1046C47.5426 65.2618 47.4997 65.4332 47.414 65.5761C47.314 65.7046 47.1569 65.7904 46.9854 65.7904H46.314L44.8712 63.7475C44.7712 63.6046 44.7854 63.4189 44.8997 63.2904L48.4997 59.5904C48.9854 59.0904 49.2712 58.4189 49.2997 57.7189L49.714 47.1475C49.714 46.7904 49.4569 46.4904 49.0997 46.4761C48.7569 46.4761 48.4426 46.7332 48.4283 47.0904L48.014 57.6618C47.9997 58.0475 47.8426 58.4046 47.5712 58.6761L43.9712 62.3761C43.414 62.9475 43.3569 63.8332 43.814 64.4761L45.4569 66.7904C45.5712 66.9618 45.7712 67.0618 45.9854 67.0618L45.9712 67.0904Z" fill="#CACF87" stroke="#CACF87" stroke-width="0.5"/>
<path d="M34.4424 66.3328H39.0853C39.5567 66.3328 39.9995 66.0899 40.2567 65.7042C40.5853 65.1899 40.5567 64.5328 40.171 64.0614L39.7567 63.5614C38.9424 62.5756 37.6138 62.1328 36.371 62.4328C36.0567 62.5042 35.7138 62.4328 35.471 62.2185L33.2853 60.3471C31.7995 59.0756 31.2424 57.0614 31.871 55.2042L34.9138 46.1328C35.0281 45.7899 34.8424 45.4328 34.5138 45.3185C34.171 45.2042 33.8138 45.3899 33.6995 45.7185L30.6567 54.7899C29.871 57.1471 30.571 59.7042 32.4567 61.3185L34.6424 63.1899C35.1995 63.6756 35.971 63.8471 36.6853 63.6756C37.4567 63.4899 38.271 63.7614 38.771 64.3756L39.1853 64.8756C39.1853 64.8756 39.2138 64.9614 39.1853 65.0042C39.171 65.0328 39.1281 65.0471 39.0995 65.0471H34.6853L25.8995 58.3185C25.5424 58.0471 25.3995 57.5756 25.5424 57.1471V57.1042C25.971 55.8899 25.9138 54.5756 25.4281 53.3899L23.4995 48.7899C23.3567 48.4614 22.9853 48.3042 22.6567 48.4471C22.3281 48.5899 22.171 48.9614 22.3138 49.2899L24.2424 53.8899C24.6138 54.7756 24.6567 55.7756 24.3424 56.6899V56.7328C24.0138 57.6756 24.3281 58.7328 25.1138 59.3328L34.0853 66.2042C34.1995 66.2899 34.3281 66.3328 34.471 66.3328H34.4424Z" fill="#CACF87" stroke="#CACF87" stroke-width="0.5"/>
<path d="M8.94279 67.0901H14.8142C15.0285 67.0901 15.2142 66.9901 15.3428 66.8187C15.4571 66.6473 15.4999 66.433 15.4285 66.233L14.9285 64.833C14.4999 63.633 13.2714 62.8901 11.9999 63.0758L10.3856 63.3187C10.0285 63.3758 9.78565 63.7044 9.84279 64.0473C9.89993 64.4044 10.2142 64.6473 10.5714 64.5901L12.1856 64.3473C12.8428 64.2473 13.4999 64.633 13.7142 65.2758L13.9142 65.8187H9.5285L8.31422 56.333C8.28565 56.1615 8.28565 56.0044 8.28565 55.833C8.28565 54.6901 8.78564 53.6044 9.65707 52.8615C9.74279 52.7901 9.79993 52.7044 9.84279 52.6044L11.8856 47.2901C12.2999 46.233 12.4999 45.1044 12.4999 43.9758C12.4999 43.0473 12.3571 42.1187 12.0714 41.2187C11.2856 38.7187 11.4856 36.033 12.6285 33.6615L13.6856 31.4901C13.8142 31.233 13.7571 30.933 13.5428 30.733C12.5714 29.833 11.6285 28.8758 10.6285 27.7901C8.37136 25.2615 6.54279 22.633 5.19993 19.9615C5.04279 19.6758 4.9285 19.3901 4.79993 19.0901L4.2285 17.7615C3.95708 17.0187 3.69993 16.233 3.45708 15.4473C3.27136 14.7187 3.07136 13.9187 2.94279 13.1044C2.88564 12.8187 2.85708 12.533 2.82851 12.2187C2.82851 12.1044 2.79993 11.9901 2.78564 11.8615V11.633C2.74279 11.2901 2.7285 10.9615 2.74279 10.6187C2.74279 9.67583 2.84279 8.83297 3.04279 8.03297C3.27136 7.14726 3.64279 6.29011 4.12851 5.57583C4.64279 4.83297 5.31422 4.17583 6.05708 3.69011C6.4285 3.44726 6.82851 3.24726 7.24279 3.07583C7.48565 2.97583 7.68565 2.9044 7.87136 2.84726C7.97136 2.81869 8.08564 2.79011 8.19993 2.76154L8.38565 2.71869C8.38565 2.71869 8.49993 2.69011 8.61422 2.67583C8.88565 2.63297 9.15708 2.69011 9.38565 2.86154C9.61422 3.01869 9.75707 3.26154 9.79993 3.53297C9.84278 3.8044 9.78564 4.07583 9.6285 4.3044C9.47136 4.53297 9.2285 4.67583 8.95707 4.71869C8.89993 4.71869 8.84279 4.74726 8.78564 4.77583L8.67136 4.81869C8.67136 4.81869 8.58564 4.84726 8.5285 4.87583C8.39993 4.93297 8.25708 4.99011 8.1285 5.06154C7.87136 5.2044 7.59993 5.36154 7.35707 5.56154C6.88564 5.93297 6.49993 6.39011 6.21422 6.91869C5.68565 7.87583 5.48564 9.13297 5.61422 10.5187C5.6285 10.7615 5.67136 11.0187 5.71422 11.2615L5.74279 11.4758C5.74279 11.4758 5.74279 11.5044 5.74279 11.5187C5.77136 11.6187 5.78565 11.733 5.81422 11.833C5.85707 12.0615 5.89993 12.2758 5.97136 12.5044C6.1285 13.1473 6.35707 13.833 6.58564 14.4615C6.87136 15.1615 7.14279 15.7758 7.41422 16.3615C7.41422 16.3615 7.41422 16.3901 7.4285 16.4044L7.99993 17.4615C8.1285 17.7187 8.27136 17.9758 8.45707 18.2473C9.79993 20.4473 11.6142 22.6187 13.8285 24.6901C14.7285 25.5187 15.5714 26.233 16.3999 26.8901C16.5142 26.9758 16.6428 27.0187 16.7714 27.033L53.4428 28.3187C53.5142 28.3187 53.5999 28.3187 53.6714 28.2901C58.5999 26.5901 64.8428 18.433 65.0999 18.0901C65.1571 18.0044 65.1999 17.9187 65.2285 17.8187C65.8285 14.3901 67.7714 12.9615 67.7999 12.9473C68.0856 12.733 68.1571 12.333 67.9428 12.0473C67.7428 11.7615 67.3428 11.6901 67.0428 11.8901C66.9428 11.9615 64.7142 13.5615 63.9856 17.433C63.1999 18.4473 57.6142 25.4901 53.3571 27.033L17.0142 25.7615C16.2571 25.1615 15.4999 24.5044 14.6856 23.7615C12.5714 21.7758 10.8285 19.6901 9.51422 17.5615C9.35707 17.333 9.24279 17.1187 9.11422 16.8901L8.54279 15.833C8.28565 15.2615 8.0285 14.6758 7.75707 14.0187C7.55707 13.4473 7.3285 12.8187 7.18565 12.2044C7.1285 11.9901 7.08565 11.8044 7.05708 11.6044C7.04279 11.5044 7.01422 11.3901 6.98565 11.2901L6.95708 11.0901C6.9285 10.8615 6.88564 10.6473 6.87136 10.4473C6.77136 9.29011 6.91422 8.29011 7.31422 7.56154C7.51422 7.19011 7.79993 6.86154 8.1285 6.6044C8.31422 6.46154 8.49993 6.34726 8.68565 6.24726C8.78564 6.19011 8.88564 6.14726 8.98565 6.1044C9.01421 6.09011 9.04279 6.07583 9.07136 6.07583L9.19993 6.03297C9.19993 6.03297 9.19993 6.03297 9.21421 6.03297C9.78564 5.91869 10.2999 5.59011 10.6428 5.1044C10.9999 4.6044 11.1428 3.99011 11.0428 3.37583C10.8428 2.1044 9.6285 1.24726 8.37136 1.46154C8.21421 1.49011 8.17136 1.5044 8.08565 1.51869L7.89993 1.56154C7.75708 1.59011 7.61422 1.63297 7.48565 1.67583C7.25707 1.74726 7.01422 1.83297 6.74279 1.93297C6.25707 2.13297 5.78564 2.37583 5.34279 2.66154C4.45707 3.23297 3.65707 4.0044 3.04279 4.9044C2.47136 5.74726 2.0285 6.74726 1.77136 7.77583C1.54279 8.67583 1.4285 9.61869 1.4285 10.6615C1.4285 11.0473 1.44279 11.4187 1.47136 11.7758V12.0187C1.47136 12.0187 1.48564 12.0473 1.48564 12.0615C1.48564 12.1758 1.51422 12.3044 1.5285 12.4187C1.55708 12.733 1.59994 13.0615 1.65707 13.3758C1.78564 14.233 1.99993 15.0758 2.19993 15.8615C2.45707 16.7044 2.7285 17.5044 2.99993 18.2758C2.99993 18.2758 2.99993 18.3044 3.01421 18.3187L3.59993 19.6615C3.7285 19.9758 3.87136 20.3044 4.05708 20.633C5.4285 23.3758 7.3285 26.1044 9.65707 28.7187C10.5571 29.7044 11.4285 30.5901 12.2999 31.4187L11.4571 33.1758C10.1714 35.833 9.95707 38.8615 10.8428 41.6758C11.0856 42.4473 11.1999 43.2473 11.1999 44.0473C11.1999 45.033 11.0142 45.9901 10.6714 46.9044L8.68565 52.0758C7.61422 53.0615 6.99993 54.4473 6.99993 55.9187C6.99993 56.1473 7.01421 56.3615 7.04279 56.5901L8.3285 66.633C8.37136 66.9473 8.64279 67.1901 8.97136 67.1901L8.94279 67.0901Z" fill="#CACF87" stroke="#CACF87" stroke-width="0.5"/>
<path d="M70.343 16.5902C70.6716 16.5902 70.9573 16.3331 70.9859 15.9902L71.2144 13.0617C71.2287 12.7902 71.0716 12.5331 70.8287 12.4188C70.5716 12.3045 70.2859 12.376 70.1001 12.5902L68.1287 14.8331C67.9001 15.1045 67.9144 15.5045 68.1859 15.7474C68.4573 15.976 68.8573 15.9617 69.1001 15.6902L69.8001 14.8902L69.7287 15.9045C69.7001 16.2617 69.9716 16.5617 70.3144 16.5902C70.3287 16.5902 70.343 16.5902 70.3573 16.5902H70.343Z" fill="#CACF87" stroke="#CACF87" stroke-width="0.5"/>
</g>
<defs>
<clipPath id="clip0_5172_3357">
<rect width="81" height="68" fill="white" transform="matrix(-1 0 0 1 81 0)"/>
</clipPath>
</defs>
</svg>
