<svg width="355" height="142" viewBox="0 0 355 142" fill="none" xmlns="http://www.w3.org/2000/svg">
<g clip-path="url(#clip0_5192_3444)">
<path d="M214.899 66.0253C220.023 66.0253 225.05 63.2887 227.748 58.8831C230.756 53.9922 231.338 45.7437 225.904 38.291C222.333 33.4001 216.937 29.5961 208.902 26.355C206.418 25.3457 203.876 24.453 201.411 23.599C197.626 22.2793 193.725 20.9013 190.096 19.1545C185.865 17.0973 181.576 13.4291 182.274 9.27578C182.527 7.74254 183.652 6.36455 185.282 5.56882C186.913 4.77308 188.698 4.75368 190.057 5.49119L191.435 2.98753C189.261 1.80363 186.505 1.80363 184.04 2.98753C181.576 4.19084 179.868 6.36455 179.46 8.79058C178.276 15.9522 186.35 20.4937 188.854 21.697C192.619 23.5214 196.617 24.9188 200.479 26.2773C202.925 27.1313 205.428 28.0047 207.854 28.9945C215.365 32.0222 220.372 35.5156 223.614 39.9601C227.573 45.3944 228.291 52.556 225.322 57.3692C222.973 61.212 218.199 63.5604 213.715 63.0752C208.805 62.5512 206.107 58.6696 203.235 54.5745C202.206 53.0994 201.139 51.5856 199.974 50.227C194.598 43.997 187.068 39.3973 179.169 34.8363C166.845 27.7135 154.307 24.6276 141.032 21.3671L139.266 20.9401C134.763 20.0861 130.804 19.9309 127.213 20.4355H127.174C119.974 21.7164 114.656 24.026 110.406 27.7135L110.309 27.8106C109.474 28.7034 108.64 29.5573 107.805 30.3725C106.155 32.0222 104.603 33.5942 103.205 35.3798C101.4 37.2818 99.2849 38.4463 97.5382 38.5239C91.1723 38.3492 85.3304 41.4351 80.1484 47.6845L82.3416 49.5089C86.9413 43.9582 92.0262 41.241 97.4993 41.3963H97.5382H97.577C101.206 41.2799 104.195 38.4851 105.321 37.3012L105.398 37.2041C106.699 35.535 108.213 34.0212 109.804 32.4103C110.619 31.5952 111.473 30.7412 112.308 29.8484C116.131 26.5296 120.983 24.453 127.621 23.2885C130.901 22.8227 134.511 22.978 138.683 23.7543L140.333 24.1618C153.395 27.3836 165.758 30.4307 177.733 37.34C185.399 41.7651 192.716 46.2289 197.801 52.129C198.868 53.3711 199.839 54.7685 200.887 56.2436C203.856 60.4939 207.194 65.3072 213.405 65.9476C213.91 66.0059 214.395 66.0253 214.899 66.0253Z" fill="#E0E2B4" stroke="#E0E2B4" stroke-width="1.55338"/>
<path d="M55.7914 138.961C54.2388 137.564 53.5206 135.934 52.8996 134.497C51.968 132.343 51.3857 131.043 48.5133 130.752C45.5633 130.46 42.9044 131.45 40.0902 132.498C36.5967 133.799 32.9868 135.138 28.5229 134.226C26.6791 133.838 24.816 133.139 22.6422 132.013C18.6442 129.936 13.2875 126.171 10.3763 120.077C7.69795 114.449 9.19238 110.101 10.7838 105.502C11.1332 104.492 11.4825 103.464 11.8125 102.377C12.2395 100.979 12.2395 99.6209 12.2395 98.1847C12.2395 96.962 12.2395 95.7199 12.5112 94.3807C12.7441 93.158 13.501 91.9353 14.2967 90.6349C15.0536 89.3928 16.1017 87.6655 15.8494 86.8891C15.6165 86.1905 14.1997 85.0648 13.074 84.172C11.6184 83.0269 10.124 81.843 9.32823 80.4456C7.27097 76.8745 5.75713 72.3912 4.84495 67.151V67.054C4.14625 60.7463 6.06766 54.6328 7.8144 50.0136L7.85321 49.9166C7.93084 49.7419 7.8338 49.0238 7.77558 48.6162C7.71735 48.2281 7.65913 47.7817 7.62031 47.3159C7.44564 46.6948 7.25156 46.0932 7.05748 45.4721C6.18411 42.6579 5.29133 39.7661 5.56305 36.7384V36.6414C5.6989 35.9233 5.81535 35.2052 5.91239 34.5065C6.45582 30.9742 6.96044 27.636 8.72658 24.1814C9.17297 23.0557 9.9687 22.7257 10.4345 22.6093C12.1812 22.2017 13.9474 23.9096 15.3642 25.2876C15.5 25.4235 15.6165 25.5399 15.7329 25.6564C16.5093 26.2386 17.3632 26.7626 18.2366 27.3255C19.7698 28.2765 21.3419 29.2663 22.7975 30.6443C23.3603 31.1683 23.8844 31.4594 24.3308 31.4594C27.4555 31.013 30.3473 30.2561 33.3944 29.4604C33.9766 29.3051 34.5589 29.1498 35.1605 29.014H35.277C40.7307 28.0242 46.7084 27.6942 53.5595 27.9659H53.6371C57.6352 28.3347 61.1675 29.2469 64.4086 30.7413C65.6896 31.1683 67.2034 29.965 68.2709 28.8393C68.5038 28.5094 68.7172 28.1988 68.9307 27.8883C69.8041 26.6074 70.5804 25.5011 71.6285 24.3754L74.1127 21.7165C74.1127 21.7165 74.268 21.5418 74.365 21.4254C75.1608 20.5326 76.3641 19.1935 77.9361 19.2323C78.499 19.2323 79.2947 19.4458 80.0128 20.2997C80.5951 20.882 81.2549 21.9882 81.3132 23.2886C81.5461 25.6952 82.0119 28.1794 82.4582 30.5666C83.2734 34.9335 84.1079 39.4362 83.681 44.0165V44.1135C83.6033 44.4823 83.5645 44.8705 83.5063 45.2974C83.254 47.3353 82.924 50.1495 80.5174 51.6051L79.0424 49.1597C80.2457 48.4222 80.4592 46.656 80.6727 44.9675C80.7309 44.5405 80.7697 44.1135 80.8474 43.706C81.2161 39.5332 80.4592 35.4381 79.6441 31.0907C79.1783 28.6258 78.7125 26.0639 78.4602 23.5215V23.4244C78.4407 22.978 78.169 22.4928 77.9749 22.2988L77.8391 22.1435C77.8391 22.1435 77.8003 22.1047 77.8003 22.0853C77.4315 22.2405 76.7522 22.9975 76.4805 23.2886C76.3641 23.405 76.267 23.5215 76.17 23.6185L73.6857 26.2774C72.7736 27.2478 72.0943 28.2183 71.2597 29.4604C71.0268 29.7903 70.7939 30.1397 70.5222 30.5084L70.3863 30.6637C67.9603 33.2644 65.5925 34.1572 63.3606 33.342L63.2441 33.3032C60.2359 31.9252 57.0917 31.1101 53.3654 30.7607C46.7666 30.5084 41.0218 30.8189 35.7816 31.7311C35.1993 31.8864 34.6365 32.0223 34.0737 32.1775C30.9101 32.9927 27.9213 33.769 24.6025 34.2542H24.4472C23.2051 34.3124 21.9824 33.769 20.8179 32.6821C19.5563 31.4982 18.1007 30.586 16.6839 29.7127C15.7523 29.1304 14.8013 28.5288 13.9086 27.8689L13.7921 27.7719C13.6563 27.636 13.501 27.4807 13.3263 27.3255C12.8799 26.8985 11.8319 25.8893 11.1914 25.5205C9.67758 28.5288 9.21178 31.4982 8.68776 34.9141C8.59072 35.6128 8.47427 36.3115 8.35782 37.0296C8.14433 39.475 8.92066 41.9786 9.73581 44.6182C9.94929 45.3168 10.1628 45.9961 10.3569 46.6948L10.3957 46.8695V47.0442C10.3957 47.4129 10.4733 47.7817 10.5315 48.1893C10.6674 49.1014 10.8227 50.1107 10.4151 51.0617C8.7848 55.3703 6.99925 61.0181 7.60091 66.7047C8.47427 71.5955 9.85225 75.7489 11.7348 79.0288C12.2589 79.941 13.5398 80.9503 14.7819 81.9207C16.4316 83.221 18.0037 84.4631 18.5083 85.9576C19.1876 87.9954 17.8678 90.1885 16.6839 92.1099C16.0629 93.1386 15.4224 94.1866 15.2671 94.9047C15.0536 95.9722 15.0536 97.0396 15.0536 98.1847C15.0536 99.7568 15.0536 101.387 14.4908 103.192C14.1415 104.318 13.7727 105.385 13.4234 106.433C11.9095 110.819 10.7256 114.274 12.8993 118.854C15.4612 124.23 20.2939 127.607 23.9038 129.49C25.8446 130.499 27.4749 131.12 29.0469 131.45C32.6957 132.207 35.7816 131.062 39.0421 129.839C42.0504 128.733 45.1363 127.569 48.7462 127.937C53.2877 128.384 54.4522 131.043 55.4809 133.372C56.0437 134.653 56.5677 135.875 57.674 136.865C61.1286 139.97 66.1748 139.757 69.6488 138.185C75.2384 135.642 80.7697 133.411 86.9998 134.109C96.8009 135.196 106.757 134.459 115.045 132.052C119.528 130.752 123.526 128.985 127 126.792C120.983 121.164 116.791 114.352 115.025 107.151C112.483 96.8844 115.258 85.8411 122.07 79.0094C125.447 75.613 129.29 74.235 132.59 75.2248C134.589 75.8265 136.102 77.2045 137.209 78.3496C142.003 83.2986 144.875 90.1691 145.282 97.7189C145.671 105.055 143.749 112.333 139.848 118.233C137.636 121.591 134.899 124.522 131.658 127.045C132.337 127.588 133.017 128.112 133.735 128.617C144.196 136.108 157.335 139.699 170.707 138.69C184.118 137.68 197.471 132.324 205.545 124.716C210.572 119.98 214.22 113.381 216.064 105.657C216.53 103.716 216.588 101.271 216.646 98.6893C216.782 93.0804 216.918 86.6951 221.654 83.4927C224.72 81.416 228.408 80.8532 231.959 80.5815C244.614 79.5529 257.384 81.2996 269.728 82.9687C274.192 83.5703 278.83 84.2108 283.372 84.696C296.647 86.1128 310.834 86.5204 328.03 85.977C337.326 85.6858 344.469 85.3171 351.203 84.8125C352.639 84.696 354.231 84.7154 355.919 84.7154C360.17 84.7154 364.983 84.7154 367.817 82.794L369.427 85.1618C365.856 87.5878 360.577 87.5684 355.919 87.5684C354.289 87.5684 352.756 87.5684 351.436 87.6655C344.643 88.1895 337.462 88.5388 328.127 88.83C310.795 89.3734 296.492 88.9658 283.081 87.5296C278.5 87.0444 273.862 86.4039 269.359 85.8023C257.171 84.1526 244.555 82.4253 232.212 83.4345C229.068 83.6868 225.807 84.1526 223.284 85.8605C219.771 88.2477 219.635 93.6044 219.519 98.767C219.461 101.504 219.402 104.085 218.859 106.336C216.879 114.604 212.959 121.688 207.525 126.812C198.868 134.963 185.186 140.475 170.94 141.543C156.889 142.591 143.089 138.825 132.085 130.946C131.115 130.247 130.183 129.529 129.271 128.772C125.409 131.334 120.945 133.352 115.879 134.808C107.242 137.331 96.8785 138.088 86.728 136.962C81.2355 136.361 76.0924 138.437 70.8716 140.805C68.8337 141.737 66.66 142.183 64.5445 142.183C61.2645 142.183 58.1204 141.096 55.7914 139V138.961ZM124.108 80.9697C117.995 87.1026 115.53 97.0978 117.82 106.414C119.508 113.265 123.565 119.747 129.445 125.084C132.648 122.678 135.326 119.864 137.48 116.603C144.972 105.269 143.943 89.3152 135.171 80.271C134.317 79.3782 133.152 78.3107 131.774 77.9032C131.328 77.7673 130.882 77.7091 130.435 77.7091C127.602 77.7091 124.943 80.1351 124.108 80.9697Z" fill="#E0E2B4" stroke="#E0E2B4" stroke-width="1.55338"/>
<path d="M48.1059 101.329C49.775 101.329 51.4247 101.038 53.0356 100.378C55.7333 99.2714 57.7906 97.2918 59.7896 95.3898C60.6048 94.6135 61.3811 93.876 62.1963 93.1773C64.1177 91.5664 66.272 90.266 68.5427 88.8881C70.9299 87.4519 73.3948 85.9574 75.5879 84.0554C83.5647 77.1267 86.4177 64.9966 82.3808 55.2343C82.2061 54.8267 82.012 54.4386 81.8179 54.0504C81.4103 53.2158 81.0028 52.4395 81.0416 51.7602C81.0804 51.1004 81.7791 50.0523 82.3419 49.1984C82.6137 48.7908 82.8854 48.3832 83.0989 48.0145L80.6146 46.5977C80.4399 46.8888 80.207 47.2381 79.9742 47.6069C79.1784 48.7908 78.2856 50.1494 78.208 51.605C78.1304 53.0412 78.7514 54.2639 79.2949 55.3313C79.4695 55.6807 79.6442 56.0106 79.7607 56.3211C83.3318 64.9772 80.7893 75.7293 73.7247 81.8817C71.7257 83.609 69.4743 84.9676 67.0871 86.4232C64.8164 87.7818 62.468 89.1986 60.3719 90.9647C59.4791 91.7022 58.6446 92.5174 57.8294 93.2937C55.9468 95.0987 54.1613 96.8066 51.9682 97.6994C46.5533 99.9313 40.3621 96.7484 34.986 93.6042L33.5498 96.0691C38.3048 98.8444 43.2927 101.29 48.1253 101.29L48.1059 101.329Z" fill="#E0E2B4" stroke="#E0E2B4" stroke-width="1.55338"/>
</g>
<defs>
<clipPath id="clip0_5192_3444">
<rect width="355" height="142" fill="white"/>
</clipPath>
</defs>
</svg>
