<svg width="24" height="24" viewBox="0 0 24 24" fill="none" xmlns="http://www.w3.org/2000/svg">
<path d="M11.3883 14.9448L6.1274 10.2636C6.09352 10.2305 6.08564 10.1988 6.08595 10.1779C6.08626 10.156 6.09574 10.1224 6.13431 10.0881C6.1749 10.052 6.24093 10.0231 6.32048 10.0222C6.39822 10.0213 6.46443 10.0473 6.50695 10.0817L11.2475 14.2997L11.5799 14.5954L11.9123 14.2997L16.6589 10.0764C16.7002 10.0396 16.7672 10.0107 16.8479 10.0107C16.9286 10.0108 16.9962 10.04 17.0374 10.0767C17.0771 10.112 17.0859 10.1461 17.0859 10.1672C17.0859 10.1885 17.0769 10.2228 17.0373 10.2579L17.0371 10.2581L11.77 14.9448C11.7698 14.945 11.7696 14.9452 11.7694 14.9453C11.7275 14.982 11.6601 15.0107 11.5794 15.0107C11.4984 15.0107 11.4305 14.9818 11.3888 14.9453C11.3887 14.9451 11.3885 14.945 11.3883 14.9448Z" fill="#989898" stroke="#989898"/>
</svg>
