<svg width="24" height="24" viewBox="0 0 24 24" fill="none" xmlns="http://www.w3.org/2000/svg">
<path d="M14.82 13.056L15.1125 12.7249L14.82 12.3938L10.6062 7.62492C10.4985 7.503 10.4985 7.37228 10.6062 7.25036C10.6516 7.19901 10.6808 7.18814 10.6895 7.18616C10.6982 7.18814 10.7275 7.19901 10.7728 7.25036L15.4446 12.5376C15.5523 12.6595 15.5523 12.7903 15.4446 12.9122L10.8144 18.1524C10.7379 18.1956 10.6506 18.1972 10.5733 18.1571C10.4999 18.0476 10.5108 17.9328 10.6062 17.8249L14.82 13.056ZM10.6922 7.18579C10.6922 7.18585 10.6915 7.186 10.6901 7.18603L10.6922 7.18579ZM10.6889 7.18603C10.6875 7.186 10.6868 7.18585 10.6868 7.18579L10.6889 7.18603Z" fill="#989898" stroke="#989898"/>
</svg>
