<svg width="24" height="24" viewBox="0 0 24 24" fill="#ffffff" xmlns="http://www.w3.org/2000/svg">
<path d="M2.32754 6.31128L2.32755 6.31127L2.32661 6.30867C2.26311 6.13311 2.21349 5.87648 2.21349 5.51739C2.21349 5.16218 2.26635 4.9039 2.32741 4.7239C2.43349 4.42983 2.71576 4.31954 2.95365 4.30848C3.65334 4.27826 5.83224 4.21739 12.0004 4.21739C18.1691 4.21739 20.3522 4.27826 21.0473 4.30848C21.291 4.31962 21.5716 4.43073 21.6733 4.72351L21.6733 4.72351L21.6743 4.72612C21.7378 4.90167 21.7874 5.1583 21.7874 5.51739C21.7874 5.87261 21.7345 6.13088 21.6735 6.31088C21.5674 6.60497 21.2851 6.71526 21.0472 6.72631C20.3475 6.75653 18.1685 6.81739 12.0004 6.81739C5.83183 6.81739 3.64874 6.75652 2.95358 6.7263C2.70984 6.71517 2.42924 6.60405 2.32754 6.31128Z" fill="#ffffff" stroke="#989898" stroke-width="0.434783"/>
<path d="M21.0506 12.961L21.0503 12.961C20.4293 12.9912 18.8421 13.0434 15.0434 13.0434C11.2447 13.0434 9.66271 12.9955 9.03843 12.9611C8.73132 12.9429 8.42389 12.7682 8.3571 12.412L8.35711 12.412L8.3568 12.4104C8.32542 12.2496 8.30431 12.0294 8.30431 11.739C8.30431 11.4486 8.32542 11.2285 8.3568 11.0676L8.35681 11.0676L8.3571 11.066C8.42419 10.7082 8.73318 10.5313 9.03626 10.517L9.0366 10.517C9.65752 10.4868 11.2448 10.4347 15.0434 10.4347C18.8422 10.4347 20.4242 10.4825 21.0484 10.5169C21.3555 10.5351 21.663 10.7098 21.7298 11.066L21.7301 11.0676C21.7615 11.2285 21.7826 11.4486 21.7826 11.739C21.7826 12.0294 21.7615 12.2496 21.7301 12.4104L21.7298 12.412C21.6627 12.7698 21.3537 12.9467 21.0506 12.961Z" fill="#ffffff" stroke="#989898" stroke-width="0.434783"/>
<path d="M5.55964 19.6047L5.55964 19.6046L5.55743 19.6045C5.29405 19.5937 4.99836 19.4567 4.91059 19.1348C4.86397 18.9598 4.82677 18.7181 4.82677 18.387C4.82677 18.0552 4.86412 17.8139 4.91041 17.6442L4.91046 17.644C4.99756 17.3236 5.29136 17.1886 5.55938 17.1737C6.23377 17.1434 8.16977 17.0826 13.305 17.0826C18.4441 17.0826 20.3783 17.1392 21.0504 17.1736V17.1737L21.0526 17.1737C21.316 17.1846 21.6117 17.3216 21.6995 17.6435C21.7461 17.8187 21.7833 18.0603 21.7833 18.387C21.7833 18.7139 21.7461 18.9599 21.6995 19.1348C21.6122 19.4548 21.3186 19.5897 21.0507 19.6046C20.3763 19.6349 18.4403 19.6957 13.305 19.6957C8.16599 19.6957 6.2318 19.6391 5.55964 19.6047Z" fill="#ffffff" stroke="#989898" stroke-width="0.434783"/>
</svg>
